%TF.GenerationSoftware,KiCad,Pcbnew,(6.0.8)*%
%TF.CreationDate,2023-02-22T01:01:06+01:00*%
%TF.ProjectId,EECD-22-7,45454344-2d32-4322-9d37-2e6b69636164,rev?*%
%TF.SameCoordinates,Original*%
%TF.FileFunction,Copper,L2,Bot*%
%TF.FilePolarity,Positive*%
%FSLAX46Y46*%
G04 Gerber Fmt 4.6, Leading zero omitted, Abs format (unit mm)*
G04 Created by KiCad (PCBNEW (6.0.8)) date 2023-02-22 01:01:06*
%MOMM*%
%LPD*%
G01*
G04 APERTURE LIST*
%TA.AperFunction,ComponentPad*%
%ADD10R,2.500000X2.500000*%
%TD*%
%TA.AperFunction,ComponentPad*%
%ADD11C,2.500000*%
%TD*%
%TA.AperFunction,ComponentPad*%
%ADD12R,2.200000X2.200000*%
%TD*%
%TA.AperFunction,ComponentPad*%
%ADD13O,2.200000X2.200000*%
%TD*%
%TA.AperFunction,ComponentPad*%
%ADD14R,1.000000X1.000000*%
%TD*%
%TA.AperFunction,ComponentPad*%
%ADD15O,1.000000X1.000000*%
%TD*%
%TA.AperFunction,ComponentPad*%
%ADD16C,1.524000*%
%TD*%
%TA.AperFunction,ViaPad*%
%ADD17C,0.800000*%
%TD*%
%TA.AperFunction,Conductor*%
%ADD18C,0.250000*%
%TD*%
G04 APERTURE END LIST*
D10*
%TO.P,J3,1,Pin_1*%
%TO.N,+BATT*%
X131866000Y-145034000D03*
D11*
%TO.P,J3,2,Pin_2*%
%TO.N,GND12V*%
X136866000Y-145034000D03*
%TD*%
D12*
%TO.P,D1,1,K*%
%TO.N,GND12V*%
X136144000Y-136144000D03*
D13*
%TO.P,D1,2,A*%
%TO.N,Net-(C5-Pad2)*%
X125984000Y-136144000D03*
%TD*%
D14*
%TO.P,J4,1,VTref*%
%TO.N,+3.3V*%
X98017000Y-108448000D03*
D15*
%TO.P,J4,2,SWDIO/TMS*%
%TO.N,SWDIO*%
X99287000Y-108448000D03*
%TO.P,J4,3,GND*%
%TO.N,GND12V*%
X98017000Y-109718000D03*
%TO.P,J4,4,SWDCLK/TCK*%
%TO.N,SWDLK*%
X99287000Y-109718000D03*
%TO.P,J4,5,GND*%
%TO.N,GND12V*%
X98017000Y-110988000D03*
%TO.P,J4,6,SWO/TDO*%
%TO.N,TDO*%
X99287000Y-110988000D03*
%TO.P,J4,7,KEY*%
%TO.N,unconnected-(J4-Pad7)*%
X98017000Y-112258000D03*
%TO.P,J4,8,NC/TDI*%
%TO.N,TDI*%
X99287000Y-112258000D03*
%TO.P,J4,9,GNDDetect*%
%TO.N,unconnected-(J4-Pad9)*%
X98017000Y-113528000D03*
%TO.P,J4,10,~{RESET}*%
%TO.N,RST*%
X99287000Y-113528000D03*
%TD*%
D16*
%TO.P,U1,1,IN_M12*%
%TO.N,Net-(U1-Pad1)*%
X144505000Y-110511000D03*
%TO.P,U1,2,OUT_PCB\u002C*%
%TO.N,pres*%
X137435000Y-110511000D03*
%TO.P,U1,3,GND_M12*%
%TO.N,Net-(U1-Pad3)*%
X137435000Y-117581000D03*
%TD*%
D12*
%TO.P,D2,1,K*%
%TO.N,Net-(C5-Pad2)*%
X130556000Y-128524000D03*
D13*
%TO.P,D2,2,A*%
%TO.N,GND12V*%
X140716000Y-128524000D03*
%TD*%
D10*
%TO.P,J1,1,Pin_1*%
%TO.N,+5V*%
X107014000Y-138176000D03*
D11*
%TO.P,J1,2,Pin_2*%
%TO.N,GND12V*%
X112014000Y-138176000D03*
%TO.P,J1,3,Pin_3*%
%TO.N,temper*%
X117014000Y-138176000D03*
%TD*%
D10*
%TO.P,J5,1,Pin_1*%
%TO.N,Net-(BZ1-Pad1)*%
X118832000Y-127254000D03*
D11*
%TO.P,J5,2,Pin_2*%
%TO.N,GND12V*%
X113832000Y-127254000D03*
%TD*%
D10*
%TO.P,J2,1,Pin_1*%
%TO.N,+5V*%
X97028000Y-135262000D03*
D11*
%TO.P,J2,2,Pin_2*%
%TO.N,GND12V*%
X97028000Y-130262000D03*
%TO.P,J2,3,Pin_3*%
%TO.N,I2C_1_SDA*%
X97028000Y-125262000D03*
%TO.P,J2,4,Pin_4*%
%TO.N,I2C_1_CLK*%
X97028000Y-120262000D03*
%TD*%
D17*
%TO.N,Net-(C18-Pad2)*%
X113898000Y-89202000D03*
X111301500Y-111635900D03*
%TO.N,pres*%
X120724800Y-110677000D03*
%TO.N,peri_power_1*%
X112591200Y-106348700D03*
X111438100Y-109734900D03*
%TO.N,RST*%
X115695500Y-115175600D03*
%TO.N,TDO*%
X101976700Y-110987000D03*
%TO.N,SWDIO*%
X114817600Y-106186000D03*
%TO.N,+3.3V*%
X112534000Y-114362900D03*
X117266000Y-115957800D03*
%TO.N,+BATT*%
X117263300Y-97746600D03*
X145301000Y-97586800D03*
X111831500Y-98691400D03*
%TD*%
D18*
%TO.N,Net-(C18-Pad2)*%
X110689100Y-111023500D02*
X111301500Y-111635900D01*
X110689100Y-92410900D02*
X110689100Y-111023500D01*
X113898000Y-89202000D02*
X110689100Y-92410900D01*
%TO.N,pres*%
X137015000Y-110677000D02*
X120724800Y-110677000D01*
X137435000Y-110257000D02*
X137015000Y-110677000D01*
%TO.N,peri_power_1*%
X112591200Y-108581800D02*
X111438100Y-109734900D01*
X112591200Y-106348700D02*
X112591200Y-108581800D01*
%TO.N,RST*%
X99287000Y-113528000D02*
X100112300Y-113528000D01*
X114047900Y-113528000D02*
X115695500Y-115175600D01*
X100112300Y-113528000D02*
X114047900Y-113528000D01*
%TO.N,TDO*%
X100113300Y-110987000D02*
X100112300Y-110988000D01*
X101976700Y-110987000D02*
X100113300Y-110987000D01*
X99287000Y-110988000D02*
X100112300Y-110988000D01*
%TO.N,SWDIO*%
X99287000Y-108448000D02*
X100112300Y-108448000D01*
X100463500Y-108448000D02*
X100112300Y-108448000D01*
X104426900Y-112411400D02*
X100463500Y-108448000D01*
X111556300Y-112411400D02*
X104426900Y-112411400D01*
X114817600Y-109150100D02*
X111556300Y-112411400D01*
X114817600Y-106186000D02*
X114817600Y-109150100D01*
%TO.N,+3.3V*%
X97681700Y-114362900D02*
X112534000Y-114362900D01*
X97136800Y-113818000D02*
X97681700Y-114362900D01*
X97136800Y-109328200D02*
X97136800Y-113818000D01*
X98017000Y-108448000D02*
X97136800Y-109328200D01*
X114128900Y-115957800D02*
X117266000Y-115957800D01*
X112534000Y-114362900D02*
X114128900Y-115957800D01*
%TO.N,+BATT*%
X131866000Y-145034000D02*
X131866000Y-143458700D01*
X122948100Y-97586800D02*
X119956200Y-100578700D01*
X145301000Y-97586800D02*
X122948100Y-97586800D01*
X137569400Y-137755300D02*
X131866000Y-143458700D01*
X137569400Y-128620000D02*
X137569400Y-137755300D01*
X119956200Y-111006800D02*
X137569400Y-128620000D01*
X119956200Y-100578700D02*
X119956200Y-111006800D01*
X117124100Y-98691400D02*
X111831500Y-98691400D01*
X119011400Y-100578700D02*
X119956200Y-100578700D01*
X117124100Y-98691400D02*
X119011400Y-100578700D01*
X117124100Y-97885800D02*
X117263300Y-97746600D01*
X117124100Y-98691400D02*
X117124100Y-97885800D01*
%TO.N,GND12V*%
X113589500Y-136600500D02*
X112014000Y-138176000D01*
X118355100Y-136600500D02*
X113589500Y-136600500D01*
X119335300Y-137580700D02*
X118355100Y-136600500D01*
X133282000Y-137580700D02*
X119335300Y-137580700D01*
X134718700Y-136144000D02*
X133282000Y-137580700D01*
X136144000Y-136144000D02*
X134718700Y-136144000D01*
%TD*%
M02*
