M48
; DRILL file {KiCad (6.0.8)} date Wed Feb 22 01:01:20 2023
; FORMAT={-:-/ absolute / inch / decimal}
; #@! TF.CreationDate,2023-02-22T01:01:20+01:00
; #@! TF.GenerationSoftware,Kicad,Pcbnew,(6.0.8)
; #@! TF.FileFunction,Plated,1,2,PTH
FMAT,2
INCH
; #@! TA.AperFunction,Plated,PTH,ViaDrill
T1C0.0157
; #@! TA.AperFunction,Plated,PTH,ComponentDrill
T2C0.0256
; #@! TA.AperFunction,Plated,PTH,ComponentDrill
T3C0.0354
; #@! TA.AperFunction,Plated,PTH,ComponentDrill
T4C0.0433
; #@! TA.AperFunction,Plated,PTH,ComponentDrill
T5C0.0512
%
G90
G05
T1
X4.0148Y-4.3696
X4.3819Y-4.3951
X4.3873Y-4.3203
X4.4028Y-3.8855
X4.4305Y-4.5025
X4.4327Y-4.187
X4.4842Y-3.5119
X4.5204Y-4.1806
X4.5549Y-4.5345
X4.6167Y-3.8483
X4.6168Y-4.5653
X4.7529Y-4.3574
X5.7205Y-3.842
T2
X3.8589Y-4.2696
X3.8589Y-4.3196
X3.8589Y-4.3696
X3.8589Y-4.4196
X3.8589Y-4.4696
X3.9089Y-4.2696
X3.9089Y-4.3196
X3.9089Y-4.3696
X3.9089Y-4.4196
X3.9089Y-4.4696
T3
X5.4108Y-4.3508
X5.4108Y-4.6292
X5.6892Y-4.3508
T4
X4.96Y-5.36
X5.14Y-5.06
X5.36Y-5.36
X5.54Y-5.06
T5
X3.82Y-4.7347
X3.82Y-4.9316
X3.82Y-5.1284
X3.82Y-5.3253
X4.2131Y-5.44
X4.41Y-5.44
X4.4816Y-5.01
X4.6069Y-5.44
X4.6784Y-5.01
X5.1916Y-5.71
X5.3884Y-5.71
T0
M30
