%TF.GenerationSoftware,KiCad,Pcbnew,(6.0.8)*%
%TF.CreationDate,2023-02-22T01:01:06+01:00*%
%TF.ProjectId,EECD-22-7,45454344-2d32-4322-9d37-2e6b69636164,rev?*%
%TF.SameCoordinates,Original*%
%TF.FileFunction,Legend,Top*%
%TF.FilePolarity,Positive*%
%FSLAX46Y46*%
G04 Gerber Fmt 4.6, Leading zero omitted, Abs format (unit mm)*
G04 Created by KiCad (PCBNEW (6.0.8)) date 2023-02-22 01:01:06*
%MOMM*%
%LPD*%
G01*
G04 APERTURE LIST*
%ADD10C,0.150000*%
%ADD11C,0.100000*%
%ADD12C,0.120000*%
%ADD13C,0.200000*%
%ADD14C,0.050000*%
G04 APERTURE END LIST*
D10*
X142066666Y-149064023D02*
X142066666Y-148587833D01*
X142352380Y-149159261D02*
X141352380Y-148825928D01*
X142352380Y-148492595D01*
X141685714Y-147730690D02*
X142495238Y-147730690D01*
X142590476Y-147778309D01*
X142638095Y-147825928D01*
X142685714Y-147921166D01*
X142685714Y-148064023D01*
X142638095Y-148159261D01*
X142304761Y-147730690D02*
X142352380Y-147825928D01*
X142352380Y-148016404D01*
X142304761Y-148111642D01*
X142257142Y-148159261D01*
X142161904Y-148206880D01*
X141876190Y-148206880D01*
X141780952Y-148159261D01*
X141733333Y-148111642D01*
X141685714Y-148016404D01*
X141685714Y-147825928D01*
X141733333Y-147730690D01*
X142352380Y-146825928D02*
X141828571Y-146825928D01*
X141733333Y-146873547D01*
X141685714Y-146968785D01*
X141685714Y-147159261D01*
X141733333Y-147254500D01*
X142304761Y-146825928D02*
X142352380Y-146921166D01*
X142352380Y-147159261D01*
X142304761Y-147254500D01*
X142209523Y-147302119D01*
X142114285Y-147302119D01*
X142019047Y-147254500D01*
X141971428Y-147159261D01*
X141971428Y-146921166D01*
X141923809Y-146825928D01*
X141685714Y-146492595D02*
X141685714Y-146111642D01*
X141352380Y-146349738D02*
X142209523Y-146349738D01*
X142304761Y-146302119D01*
X142352380Y-146206880D01*
X142352380Y-146111642D01*
X142352380Y-145349738D02*
X141828571Y-145349738D01*
X141733333Y-145397357D01*
X141685714Y-145492595D01*
X141685714Y-145683071D01*
X141733333Y-145778309D01*
X142304761Y-145349738D02*
X142352380Y-145444976D01*
X142352380Y-145683071D01*
X142304761Y-145778309D01*
X142209523Y-145825928D01*
X142114285Y-145825928D01*
X142019047Y-145778309D01*
X141971428Y-145683071D01*
X141971428Y-145444976D01*
X141923809Y-145349738D01*
X141352380Y-143825928D02*
X142066666Y-143825928D01*
X142209523Y-143873547D01*
X142304761Y-143968785D01*
X142352380Y-144111642D01*
X142352380Y-144206880D01*
X142304761Y-142968785D02*
X142352380Y-143064023D01*
X142352380Y-143254500D01*
X142304761Y-143349738D01*
X142209523Y-143397357D01*
X141828571Y-143397357D01*
X141733333Y-143349738D01*
X141685714Y-143254500D01*
X141685714Y-143064023D01*
X141733333Y-142968785D01*
X141828571Y-142921166D01*
X141923809Y-142921166D01*
X142019047Y-143397357D01*
X142352380Y-143159261D02*
X142447619Y-143254500D01*
X142542857Y-143302119D01*
X142638095Y-143254500D01*
X142685714Y-143159261D01*
X142685714Y-143064023D01*
X142352380Y-142064023D02*
X141352380Y-142064023D01*
X142304761Y-142064023D02*
X142352380Y-142159261D01*
X142352380Y-142349738D01*
X142304761Y-142444976D01*
X142257142Y-142492595D01*
X142161904Y-142540214D01*
X141876190Y-142540214D01*
X141780952Y-142492595D01*
X141733333Y-142444976D01*
X141685714Y-142349738D01*
X141685714Y-142159261D01*
X141733333Y-142064023D01*
X142352380Y-141587833D02*
X141685714Y-141587833D01*
X141876190Y-141587833D02*
X141780952Y-141540214D01*
X141733333Y-141492595D01*
X141685714Y-141397357D01*
X141685714Y-141302119D01*
X141685714Y-141064023D02*
X141685714Y-140540214D01*
X142352380Y-141064023D01*
X142352380Y-140540214D01*
X142304761Y-139778309D02*
X142352380Y-139873547D01*
X142352380Y-140064023D01*
X142304761Y-140159261D01*
X142209523Y-140206880D01*
X141828571Y-140206880D01*
X141733333Y-140159261D01*
X141685714Y-140064023D01*
X141685714Y-139873547D01*
X141733333Y-139778309D01*
X141828571Y-139730690D01*
X141923809Y-139730690D01*
X142019047Y-140206880D01*
X141685714Y-139302119D02*
X142542857Y-139302119D01*
X142638095Y-139349738D01*
X142685714Y-139444976D01*
X142685714Y-139492595D01*
X141352380Y-139302119D02*
X141400000Y-139349738D01*
X141447619Y-139302119D01*
X141400000Y-139254500D01*
X141352380Y-139302119D01*
X141447619Y-139302119D01*
X142304761Y-138397357D02*
X142352380Y-138492595D01*
X142352380Y-138683071D01*
X142304761Y-138778309D01*
X142257142Y-138825928D01*
X142161904Y-138873547D01*
X141876190Y-138873547D01*
X141780952Y-138825928D01*
X141733333Y-138778309D01*
X141685714Y-138683071D01*
X141685714Y-138492595D01*
X141733333Y-138397357D01*
X141685714Y-138064023D02*
X141685714Y-137540214D01*
X142352380Y-138064023D01*
X142352380Y-137540214D01*
X141685714Y-137254500D02*
X142352380Y-137016404D01*
X141685714Y-136778309D02*
X142352380Y-137016404D01*
X142590476Y-137111642D01*
X142638095Y-137159261D01*
X142685714Y-137254500D01*
X142352380Y-136397357D02*
X141352380Y-136397357D01*
X141971428Y-136302119D02*
X142352380Y-136016404D01*
X141685714Y-136016404D02*
X142066666Y-136397357D01*
X143438571Y-148683071D02*
X143438571Y-149016404D01*
X143962380Y-149016404D02*
X142962380Y-149016404D01*
X142962380Y-148540214D01*
X143962380Y-148159261D02*
X143295714Y-148159261D01*
X142962380Y-148159261D02*
X143010000Y-148206880D01*
X143057619Y-148159261D01*
X143010000Y-148111642D01*
X142962380Y-148159261D01*
X143057619Y-148159261D01*
X143962380Y-147540214D02*
X143914761Y-147635452D01*
X143819523Y-147683071D01*
X142962380Y-147683071D01*
X143962380Y-147159261D02*
X143295714Y-147159261D01*
X142962380Y-147159261D02*
X143010000Y-147206880D01*
X143057619Y-147159261D01*
X143010000Y-147111642D01*
X142962380Y-147159261D01*
X143057619Y-147159261D01*
X143295714Y-146683071D02*
X144295714Y-146683071D01*
X143343333Y-146683071D02*
X143295714Y-146587833D01*
X143295714Y-146397357D01*
X143343333Y-146302119D01*
X143390952Y-146254500D01*
X143486190Y-146206880D01*
X143771904Y-146206880D01*
X143867142Y-146254500D01*
X143914761Y-146302119D01*
X143962380Y-146397357D01*
X143962380Y-146587833D01*
X143914761Y-146683071D01*
X142962380Y-144730690D02*
X143676666Y-144730690D01*
X143819523Y-144778309D01*
X143914761Y-144873547D01*
X143962380Y-145016404D01*
X143962380Y-145111642D01*
X143962380Y-143825928D02*
X143438571Y-143825928D01*
X143343333Y-143873547D01*
X143295714Y-143968785D01*
X143295714Y-144159261D01*
X143343333Y-144254500D01*
X143914761Y-143825928D02*
X143962380Y-143921166D01*
X143962380Y-144159261D01*
X143914761Y-144254500D01*
X143819523Y-144302119D01*
X143724285Y-144302119D01*
X143629047Y-144254500D01*
X143581428Y-144159261D01*
X143581428Y-143921166D01*
X143533809Y-143825928D01*
X143962380Y-143349738D02*
X142962380Y-143349738D01*
X143581428Y-143254500D02*
X143962380Y-142968785D01*
X143295714Y-142968785D02*
X143676666Y-143349738D01*
X143295714Y-142111642D02*
X143962380Y-142111642D01*
X143295714Y-142540214D02*
X143819523Y-142540214D01*
X143914761Y-142492595D01*
X143962380Y-142397357D01*
X143962380Y-142254500D01*
X143914761Y-142159261D01*
X143867142Y-142111642D01*
X143962380Y-141635452D02*
X142962380Y-141635452D01*
X143343333Y-141635452D02*
X143295714Y-141540214D01*
X143295714Y-141349738D01*
X143343333Y-141254500D01*
X143390952Y-141206880D01*
X143486190Y-141159261D01*
X143771904Y-141159261D01*
X143867142Y-141206880D01*
X143914761Y-141254500D01*
X143962380Y-141349738D01*
X143962380Y-141540214D01*
X143914761Y-141635452D01*
X143962380Y-140587833D02*
X143914761Y-140683071D01*
X143867142Y-140730690D01*
X143771904Y-140778309D01*
X143486190Y-140778309D01*
X143390952Y-140730690D01*
X143343333Y-140683071D01*
X143295714Y-140587833D01*
X143295714Y-140444976D01*
X143343333Y-140349738D01*
X143390952Y-140302119D01*
X143486190Y-140254500D01*
X143771904Y-140254500D01*
X143867142Y-140302119D01*
X143914761Y-140349738D01*
X143962380Y-140444976D01*
X143962380Y-140587833D01*
X143295714Y-139921166D02*
X143962380Y-139730690D01*
X143486190Y-139540214D01*
X143962380Y-139349738D01*
X143295714Y-139159261D01*
X143914761Y-138825928D02*
X143962380Y-138730690D01*
X143962380Y-138540214D01*
X143914761Y-138444976D01*
X143819523Y-138397357D01*
X143771904Y-138397357D01*
X143676666Y-138444976D01*
X143629047Y-138540214D01*
X143629047Y-138683071D01*
X143581428Y-138778309D01*
X143486190Y-138825928D01*
X143438571Y-138825928D01*
X143343333Y-138778309D01*
X143295714Y-138683071D01*
X143295714Y-138540214D01*
X143343333Y-138444976D01*
X143962380Y-137968785D02*
X142962380Y-137968785D01*
X143581428Y-137873547D02*
X143962380Y-137587833D01*
X143295714Y-137587833D02*
X143676666Y-137968785D01*
X143962380Y-137159261D02*
X143295714Y-137159261D01*
X142962380Y-137159261D02*
X143010000Y-137206880D01*
X143057619Y-137159261D01*
X143010000Y-137111642D01*
X142962380Y-137159261D01*
X143057619Y-137159261D01*
X145048571Y-148683071D02*
X145048571Y-149016404D01*
X145572380Y-149016404D02*
X144572380Y-149016404D01*
X144572380Y-148540214D01*
X145572380Y-148159261D02*
X144905714Y-148159261D01*
X144572380Y-148159261D02*
X144620000Y-148206880D01*
X144667619Y-148159261D01*
X144620000Y-148111642D01*
X144572380Y-148159261D01*
X144667619Y-148159261D01*
X145572380Y-147540214D02*
X145524761Y-147635452D01*
X145429523Y-147683071D01*
X144572380Y-147683071D01*
X145572380Y-147159261D02*
X144905714Y-147159261D01*
X144572380Y-147159261D02*
X144620000Y-147206880D01*
X144667619Y-147159261D01*
X144620000Y-147111642D01*
X144572380Y-147159261D01*
X144667619Y-147159261D01*
X144905714Y-146683071D02*
X145905714Y-146683071D01*
X144953333Y-146683071D02*
X144905714Y-146587833D01*
X144905714Y-146397357D01*
X144953333Y-146302119D01*
X145000952Y-146254500D01*
X145096190Y-146206880D01*
X145381904Y-146206880D01*
X145477142Y-146254500D01*
X145524761Y-146302119D01*
X145572380Y-146397357D01*
X145572380Y-146587833D01*
X145524761Y-146683071D01*
X144572380Y-144730690D02*
X145286666Y-144730690D01*
X145429523Y-144778309D01*
X145524761Y-144873547D01*
X145572380Y-145016404D01*
X145572380Y-145111642D01*
X145572380Y-143825928D02*
X145048571Y-143825928D01*
X144953333Y-143873547D01*
X144905714Y-143968785D01*
X144905714Y-144159261D01*
X144953333Y-144254500D01*
X145524761Y-143825928D02*
X145572380Y-143921166D01*
X145572380Y-144159261D01*
X145524761Y-144254500D01*
X145429523Y-144302119D01*
X145334285Y-144302119D01*
X145239047Y-144254500D01*
X145191428Y-144159261D01*
X145191428Y-143921166D01*
X145143809Y-143825928D01*
X144905714Y-143349738D02*
X145572380Y-143349738D01*
X145000952Y-143349738D02*
X144953333Y-143302119D01*
X144905714Y-143206880D01*
X144905714Y-143064023D01*
X144953333Y-142968785D01*
X145048571Y-142921166D01*
X145572380Y-142921166D01*
X145572380Y-142444976D02*
X144572380Y-142444976D01*
X145191428Y-142349738D02*
X145572380Y-142064023D01*
X144905714Y-142064023D02*
X145286666Y-142444976D01*
X145572380Y-141492595D02*
X145524761Y-141587833D01*
X145477142Y-141635452D01*
X145381904Y-141683071D01*
X145096190Y-141683071D01*
X145000952Y-141635452D01*
X144953333Y-141587833D01*
X144905714Y-141492595D01*
X144905714Y-141349738D01*
X144953333Y-141254500D01*
X145000952Y-141206880D01*
X145096190Y-141159261D01*
X145381904Y-141159261D01*
X145477142Y-141206880D01*
X145524761Y-141254500D01*
X145572380Y-141349738D01*
X145572380Y-141492595D01*
X144905714Y-140825928D02*
X145572380Y-140635452D01*
X145096190Y-140444976D01*
X145572380Y-140254500D01*
X144905714Y-140064023D01*
X145572380Y-139683071D02*
X144905714Y-139683071D01*
X144572380Y-139683071D02*
X144620000Y-139730690D01*
X144667619Y-139683071D01*
X144620000Y-139635452D01*
X144572380Y-139683071D01*
X144667619Y-139683071D01*
X145572380Y-138778309D02*
X145048571Y-138778309D01*
X144953333Y-138825928D01*
X144905714Y-138921166D01*
X144905714Y-139111642D01*
X144953333Y-139206880D01*
X145524761Y-138778309D02*
X145572380Y-138873547D01*
X145572380Y-139111642D01*
X145524761Y-139206880D01*
X145429523Y-139254500D01*
X145334285Y-139254500D01*
X145239047Y-139206880D01*
X145191428Y-139111642D01*
X145191428Y-138873547D01*
X145143809Y-138778309D01*
X145572380Y-138302119D02*
X144572380Y-138302119D01*
X145191428Y-138206880D02*
X145572380Y-137921166D01*
X144905714Y-137921166D02*
X145286666Y-138302119D01*
X145048571Y-136730690D02*
X145048571Y-136397357D01*
X145572380Y-136254500D02*
X145572380Y-136730690D01*
X144572380Y-136730690D01*
X144572380Y-136254500D01*
X145048571Y-135825928D02*
X145048571Y-135492595D01*
X145572380Y-135349738D02*
X145572380Y-135825928D01*
X144572380Y-135825928D01*
X144572380Y-135349738D01*
X145477142Y-134349738D02*
X145524761Y-134397357D01*
X145572380Y-134540214D01*
X145572380Y-134635452D01*
X145524761Y-134778309D01*
X145429523Y-134873547D01*
X145334285Y-134921166D01*
X145143809Y-134968785D01*
X145000952Y-134968785D01*
X144810476Y-134921166D01*
X144715238Y-134873547D01*
X144620000Y-134778309D01*
X144572380Y-134635452D01*
X144572380Y-134540214D01*
X144620000Y-134397357D01*
X144667619Y-134349738D01*
X145572380Y-133921166D02*
X144572380Y-133921166D01*
X144572380Y-133683071D01*
X144620000Y-133540214D01*
X144715238Y-133444976D01*
X144810476Y-133397357D01*
X145000952Y-133349738D01*
X145143809Y-133349738D01*
X145334285Y-133397357D01*
X145429523Y-133444976D01*
X145524761Y-133540214D01*
X145572380Y-133683071D01*
X145572380Y-133921166D01*
X145191428Y-132921166D02*
X145191428Y-132159261D01*
X144667619Y-131730690D02*
X144620000Y-131683071D01*
X144572380Y-131587833D01*
X144572380Y-131349738D01*
X144620000Y-131254500D01*
X144667619Y-131206880D01*
X144762857Y-131159261D01*
X144858095Y-131159261D01*
X145000952Y-131206880D01*
X145572380Y-131778309D01*
X145572380Y-131159261D01*
X144572380Y-130540214D02*
X144572380Y-130444976D01*
X144620000Y-130349738D01*
X144667619Y-130302119D01*
X144762857Y-130254500D01*
X144953333Y-130206880D01*
X145191428Y-130206880D01*
X145381904Y-130254500D01*
X145477142Y-130302119D01*
X145524761Y-130349738D01*
X145572380Y-130444976D01*
X145572380Y-130540214D01*
X145524761Y-130635452D01*
X145477142Y-130683071D01*
X145381904Y-130730690D01*
X145191428Y-130778309D01*
X144953333Y-130778309D01*
X144762857Y-130730690D01*
X144667619Y-130683071D01*
X144620000Y-130635452D01*
X144572380Y-130540214D01*
X144667619Y-129825928D02*
X144620000Y-129778309D01*
X144572380Y-129683071D01*
X144572380Y-129444976D01*
X144620000Y-129349738D01*
X144667619Y-129302119D01*
X144762857Y-129254500D01*
X144858095Y-129254500D01*
X145000952Y-129302119D01*
X145572380Y-129873547D01*
X145572380Y-129254500D01*
X144667619Y-128873547D02*
X144620000Y-128825928D01*
X144572380Y-128730690D01*
X144572380Y-128492595D01*
X144620000Y-128397357D01*
X144667619Y-128349738D01*
X144762857Y-128302119D01*
X144858095Y-128302119D01*
X145000952Y-128349738D01*
X145572380Y-128921166D01*
X145572380Y-128302119D01*
X145191428Y-127873547D02*
X145191428Y-127111642D01*
X144667619Y-126683071D02*
X144620000Y-126635452D01*
X144572380Y-126540214D01*
X144572380Y-126302119D01*
X144620000Y-126206880D01*
X144667619Y-126159261D01*
X144762857Y-126111642D01*
X144858095Y-126111642D01*
X145000952Y-126159261D01*
X145572380Y-126730690D01*
X145572380Y-126111642D01*
X144572380Y-125492595D02*
X144572380Y-125397357D01*
X144620000Y-125302119D01*
X144667619Y-125254500D01*
X144762857Y-125206880D01*
X144953333Y-125159261D01*
X145191428Y-125159261D01*
X145381904Y-125206880D01*
X145477142Y-125254500D01*
X145524761Y-125302119D01*
X145572380Y-125397357D01*
X145572380Y-125492595D01*
X145524761Y-125587833D01*
X145477142Y-125635452D01*
X145381904Y-125683071D01*
X145191428Y-125730690D01*
X144953333Y-125730690D01*
X144762857Y-125683071D01*
X144667619Y-125635452D01*
X144620000Y-125587833D01*
X144572380Y-125492595D01*
X144667619Y-124778309D02*
X144620000Y-124730690D01*
X144572380Y-124635452D01*
X144572380Y-124397357D01*
X144620000Y-124302119D01*
X144667619Y-124254500D01*
X144762857Y-124206880D01*
X144858095Y-124206880D01*
X145000952Y-124254500D01*
X145572380Y-124825928D01*
X145572380Y-124206880D01*
X144572380Y-123873547D02*
X144572380Y-123254500D01*
X144953333Y-123587833D01*
X144953333Y-123444976D01*
X145000952Y-123349738D01*
X145048571Y-123302119D01*
X145143809Y-123254500D01*
X145381904Y-123254500D01*
X145477142Y-123302119D01*
X145524761Y-123349738D01*
X145572380Y-123444976D01*
X145572380Y-123730690D01*
X145524761Y-123825928D01*
X145477142Y-123873547D01*
%TO.C,J3*%
X134032666Y-139426380D02*
X134032666Y-140140666D01*
X133985047Y-140283523D01*
X133889809Y-140378761D01*
X133746952Y-140426380D01*
X133651714Y-140426380D01*
X134413619Y-139426380D02*
X135032666Y-139426380D01*
X134699333Y-139807333D01*
X134842190Y-139807333D01*
X134937428Y-139854952D01*
X134985047Y-139902571D01*
X135032666Y-139997809D01*
X135032666Y-140235904D01*
X134985047Y-140331142D01*
X134937428Y-140378761D01*
X134842190Y-140426380D01*
X134556476Y-140426380D01*
X134461238Y-140378761D01*
X134413619Y-140331142D01*
%TO.C,C7*%
X97037142Y-110910666D02*
X97084761Y-110958285D01*
X97132380Y-111101142D01*
X97132380Y-111196380D01*
X97084761Y-111339238D01*
X96989523Y-111434476D01*
X96894285Y-111482095D01*
X96703809Y-111529714D01*
X96560952Y-111529714D01*
X96370476Y-111482095D01*
X96275238Y-111434476D01*
X96180000Y-111339238D01*
X96132380Y-111196380D01*
X96132380Y-111101142D01*
X96180000Y-110958285D01*
X96227619Y-110910666D01*
X96132380Y-110577333D02*
X96132380Y-109910666D01*
X97132380Y-110339238D01*
%TO.C,D1*%
X130325904Y-139066380D02*
X130325904Y-138066380D01*
X130564000Y-138066380D01*
X130706857Y-138114000D01*
X130802095Y-138209238D01*
X130849714Y-138304476D01*
X130897333Y-138494952D01*
X130897333Y-138637809D01*
X130849714Y-138828285D01*
X130802095Y-138923523D01*
X130706857Y-139018761D01*
X130564000Y-139066380D01*
X130325904Y-139066380D01*
X131849714Y-139066380D02*
X131278285Y-139066380D01*
X131564000Y-139066380D02*
X131564000Y-138066380D01*
X131468761Y-138209238D01*
X131373523Y-138304476D01*
X131278285Y-138352095D01*
X135882095Y-138696380D02*
X135882095Y-137696380D01*
X136453523Y-138696380D02*
X136024952Y-138124952D01*
X136453523Y-137696380D02*
X135882095Y-138267809D01*
%TO.C,C20*%
X127627142Y-94083142D02*
X127579523Y-94130761D01*
X127436666Y-94178380D01*
X127341428Y-94178380D01*
X127198571Y-94130761D01*
X127103333Y-94035523D01*
X127055714Y-93940285D01*
X127008095Y-93749809D01*
X127008095Y-93606952D01*
X127055714Y-93416476D01*
X127103333Y-93321238D01*
X127198571Y-93226000D01*
X127341428Y-93178380D01*
X127436666Y-93178380D01*
X127579523Y-93226000D01*
X127627142Y-93273619D01*
X128008095Y-93273619D02*
X128055714Y-93226000D01*
X128150952Y-93178380D01*
X128389047Y-93178380D01*
X128484285Y-93226000D01*
X128531904Y-93273619D01*
X128579523Y-93368857D01*
X128579523Y-93464095D01*
X128531904Y-93606952D01*
X127960476Y-94178380D01*
X128579523Y-94178380D01*
X129198571Y-93178380D02*
X129293809Y-93178380D01*
X129389047Y-93226000D01*
X129436666Y-93273619D01*
X129484285Y-93368857D01*
X129531904Y-93559333D01*
X129531904Y-93797428D01*
X129484285Y-93987904D01*
X129436666Y-94083142D01*
X129389047Y-94130761D01*
X129293809Y-94178380D01*
X129198571Y-94178380D01*
X129103333Y-94130761D01*
X129055714Y-94083142D01*
X129008095Y-93987904D01*
X128960476Y-93797428D01*
X128960476Y-93559333D01*
X129008095Y-93368857D01*
X129055714Y-93273619D01*
X129103333Y-93226000D01*
X129198571Y-93178380D01*
%TO.C,C15*%
X127357142Y-105798857D02*
X127404761Y-105846476D01*
X127452380Y-105989333D01*
X127452380Y-106084571D01*
X127404761Y-106227428D01*
X127309523Y-106322666D01*
X127214285Y-106370285D01*
X127023809Y-106417904D01*
X126880952Y-106417904D01*
X126690476Y-106370285D01*
X126595238Y-106322666D01*
X126500000Y-106227428D01*
X126452380Y-106084571D01*
X126452380Y-105989333D01*
X126500000Y-105846476D01*
X126547619Y-105798857D01*
X127452380Y-104846476D02*
X127452380Y-105417904D01*
X127452380Y-105132190D02*
X126452380Y-105132190D01*
X126595238Y-105227428D01*
X126690476Y-105322666D01*
X126738095Y-105417904D01*
X126452380Y-103941714D02*
X126452380Y-104417904D01*
X126928571Y-104465523D01*
X126880952Y-104417904D01*
X126833333Y-104322666D01*
X126833333Y-104084571D01*
X126880952Y-103989333D01*
X126928571Y-103941714D01*
X127023809Y-103894095D01*
X127261904Y-103894095D01*
X127357142Y-103941714D01*
X127404761Y-103989333D01*
X127452380Y-104084571D01*
X127452380Y-104322666D01*
X127404761Y-104417904D01*
X127357142Y-104465523D01*
%TO.C,C17*%
X107815142Y-103735142D02*
X107767523Y-103782761D01*
X107624666Y-103830380D01*
X107529428Y-103830380D01*
X107386571Y-103782761D01*
X107291333Y-103687523D01*
X107243714Y-103592285D01*
X107196095Y-103401809D01*
X107196095Y-103258952D01*
X107243714Y-103068476D01*
X107291333Y-102973238D01*
X107386571Y-102878000D01*
X107529428Y-102830380D01*
X107624666Y-102830380D01*
X107767523Y-102878000D01*
X107815142Y-102925619D01*
X108767523Y-103830380D02*
X108196095Y-103830380D01*
X108481809Y-103830380D02*
X108481809Y-102830380D01*
X108386571Y-102973238D01*
X108291333Y-103068476D01*
X108196095Y-103116095D01*
X109100857Y-102830380D02*
X109767523Y-102830380D01*
X109338952Y-103830380D01*
%TO.C,J4*%
X95678666Y-107402380D02*
X95678666Y-108116666D01*
X95631047Y-108259523D01*
X95535809Y-108354761D01*
X95392952Y-108402380D01*
X95297714Y-108402380D01*
X96583428Y-107735714D02*
X96583428Y-108402380D01*
X96345333Y-107354761D02*
X96107238Y-108069047D01*
X96726285Y-108069047D01*
%TO.C,C23*%
X131437142Y-94083142D02*
X131389523Y-94130761D01*
X131246666Y-94178380D01*
X131151428Y-94178380D01*
X131008571Y-94130761D01*
X130913333Y-94035523D01*
X130865714Y-93940285D01*
X130818095Y-93749809D01*
X130818095Y-93606952D01*
X130865714Y-93416476D01*
X130913333Y-93321238D01*
X131008571Y-93226000D01*
X131151428Y-93178380D01*
X131246666Y-93178380D01*
X131389523Y-93226000D01*
X131437142Y-93273619D01*
X131818095Y-93273619D02*
X131865714Y-93226000D01*
X131960952Y-93178380D01*
X132199047Y-93178380D01*
X132294285Y-93226000D01*
X132341904Y-93273619D01*
X132389523Y-93368857D01*
X132389523Y-93464095D01*
X132341904Y-93606952D01*
X131770476Y-94178380D01*
X132389523Y-94178380D01*
X132722857Y-93178380D02*
X133341904Y-93178380D01*
X133008571Y-93559333D01*
X133151428Y-93559333D01*
X133246666Y-93606952D01*
X133294285Y-93654571D01*
X133341904Y-93749809D01*
X133341904Y-93987904D01*
X133294285Y-94083142D01*
X133246666Y-94130761D01*
X133151428Y-94178380D01*
X132865714Y-94178380D01*
X132770476Y-94130761D01*
X132722857Y-94083142D01*
%TO.C,R5*%
X118705333Y-102654380D02*
X118372000Y-102178190D01*
X118133904Y-102654380D02*
X118133904Y-101654380D01*
X118514857Y-101654380D01*
X118610095Y-101702000D01*
X118657714Y-101749619D01*
X118705333Y-101844857D01*
X118705333Y-101987714D01*
X118657714Y-102082952D01*
X118610095Y-102130571D01*
X118514857Y-102178190D01*
X118133904Y-102178190D01*
X119610095Y-101654380D02*
X119133904Y-101654380D01*
X119086285Y-102130571D01*
X119133904Y-102082952D01*
X119229142Y-102035333D01*
X119467238Y-102035333D01*
X119562476Y-102082952D01*
X119610095Y-102130571D01*
X119657714Y-102225809D01*
X119657714Y-102463904D01*
X119610095Y-102559142D01*
X119562476Y-102606761D01*
X119467238Y-102654380D01*
X119229142Y-102654380D01*
X119133904Y-102606761D01*
X119086285Y-102559142D01*
%TO.C,R1*%
X124039333Y-116182380D02*
X123706000Y-115706190D01*
X123467904Y-116182380D02*
X123467904Y-115182380D01*
X123848857Y-115182380D01*
X123944095Y-115230000D01*
X123991714Y-115277619D01*
X124039333Y-115372857D01*
X124039333Y-115515714D01*
X123991714Y-115610952D01*
X123944095Y-115658571D01*
X123848857Y-115706190D01*
X123467904Y-115706190D01*
X124991714Y-116182380D02*
X124420285Y-116182380D01*
X124706000Y-116182380D02*
X124706000Y-115182380D01*
X124610761Y-115325238D01*
X124515523Y-115420476D01*
X124420285Y-115468095D01*
%TO.C,U1*%
X143041619Y-113284095D02*
X142232095Y-113284095D01*
X142136857Y-113331714D01*
X142089238Y-113379333D01*
X142041619Y-113474571D01*
X142041619Y-113665047D01*
X142089238Y-113760285D01*
X142136857Y-113807904D01*
X142232095Y-113855523D01*
X143041619Y-113855523D01*
X142041619Y-114855523D02*
X142041619Y-114284095D01*
X142041619Y-114569809D02*
X143041619Y-114569809D01*
X142898761Y-114474571D01*
X142803523Y-114379333D01*
X142755904Y-114284095D01*
%TO.C,R10*%
X135501142Y-98750380D02*
X135167809Y-98274190D01*
X134929714Y-98750380D02*
X134929714Y-97750380D01*
X135310666Y-97750380D01*
X135405904Y-97798000D01*
X135453523Y-97845619D01*
X135501142Y-97940857D01*
X135501142Y-98083714D01*
X135453523Y-98178952D01*
X135405904Y-98226571D01*
X135310666Y-98274190D01*
X134929714Y-98274190D01*
X136453523Y-98750380D02*
X135882095Y-98750380D01*
X136167809Y-98750380D02*
X136167809Y-97750380D01*
X136072571Y-97893238D01*
X135977333Y-97988476D01*
X135882095Y-98036095D01*
X137072571Y-97750380D02*
X137167809Y-97750380D01*
X137263047Y-97798000D01*
X137310666Y-97845619D01*
X137358285Y-97940857D01*
X137405904Y-98131333D01*
X137405904Y-98369428D01*
X137358285Y-98559904D01*
X137310666Y-98655142D01*
X137263047Y-98702761D01*
X137167809Y-98750380D01*
X137072571Y-98750380D01*
X136977333Y-98702761D01*
X136929714Y-98655142D01*
X136882095Y-98559904D01*
X136834476Y-98369428D01*
X136834476Y-98131333D01*
X136882095Y-97940857D01*
X136929714Y-97845619D01*
X136977333Y-97798000D01*
X137072571Y-97750380D01*
%TO.C,R11*%
X111798380Y-118752857D02*
X111322190Y-119086190D01*
X111798380Y-119324285D02*
X110798380Y-119324285D01*
X110798380Y-118943333D01*
X110846000Y-118848095D01*
X110893619Y-118800476D01*
X110988857Y-118752857D01*
X111131714Y-118752857D01*
X111226952Y-118800476D01*
X111274571Y-118848095D01*
X111322190Y-118943333D01*
X111322190Y-119324285D01*
X111798380Y-117800476D02*
X111798380Y-118371904D01*
X111798380Y-118086190D02*
X110798380Y-118086190D01*
X110941238Y-118181428D01*
X111036476Y-118276666D01*
X111084095Y-118371904D01*
X111798380Y-116848095D02*
X111798380Y-117419523D01*
X111798380Y-117133809D02*
X110798380Y-117133809D01*
X110941238Y-117229047D01*
X111036476Y-117324285D01*
X111084095Y-117419523D01*
%TO.C,R13*%
X109085142Y-88496380D02*
X108751809Y-88020190D01*
X108513714Y-88496380D02*
X108513714Y-87496380D01*
X108894666Y-87496380D01*
X108989904Y-87544000D01*
X109037523Y-87591619D01*
X109085142Y-87686857D01*
X109085142Y-87829714D01*
X109037523Y-87924952D01*
X108989904Y-87972571D01*
X108894666Y-88020190D01*
X108513714Y-88020190D01*
X110037523Y-88496380D02*
X109466095Y-88496380D01*
X109751809Y-88496380D02*
X109751809Y-87496380D01*
X109656571Y-87639238D01*
X109561333Y-87734476D01*
X109466095Y-87782095D01*
X110370857Y-87496380D02*
X110989904Y-87496380D01*
X110656571Y-87877333D01*
X110799428Y-87877333D01*
X110894666Y-87924952D01*
X110942285Y-87972571D01*
X110989904Y-88067809D01*
X110989904Y-88305904D01*
X110942285Y-88401142D01*
X110894666Y-88448761D01*
X110799428Y-88496380D01*
X110513714Y-88496380D01*
X110418476Y-88448761D01*
X110370857Y-88401142D01*
%TO.C,C18*%
X117291142Y-89555857D02*
X117338761Y-89603476D01*
X117386380Y-89746333D01*
X117386380Y-89841571D01*
X117338761Y-89984428D01*
X117243523Y-90079666D01*
X117148285Y-90127285D01*
X116957809Y-90174904D01*
X116814952Y-90174904D01*
X116624476Y-90127285D01*
X116529238Y-90079666D01*
X116434000Y-89984428D01*
X116386380Y-89841571D01*
X116386380Y-89746333D01*
X116434000Y-89603476D01*
X116481619Y-89555857D01*
X117386380Y-88603476D02*
X117386380Y-89174904D01*
X117386380Y-88889190D02*
X116386380Y-88889190D01*
X116529238Y-88984428D01*
X116624476Y-89079666D01*
X116672095Y-89174904D01*
X116814952Y-88032047D02*
X116767333Y-88127285D01*
X116719714Y-88174904D01*
X116624476Y-88222523D01*
X116576857Y-88222523D01*
X116481619Y-88174904D01*
X116434000Y-88127285D01*
X116386380Y-88032047D01*
X116386380Y-87841571D01*
X116434000Y-87746333D01*
X116481619Y-87698714D01*
X116576857Y-87651095D01*
X116624476Y-87651095D01*
X116719714Y-87698714D01*
X116767333Y-87746333D01*
X116814952Y-87841571D01*
X116814952Y-88032047D01*
X116862571Y-88127285D01*
X116910190Y-88174904D01*
X117005428Y-88222523D01*
X117195904Y-88222523D01*
X117291142Y-88174904D01*
X117338761Y-88127285D01*
X117386380Y-88032047D01*
X117386380Y-87841571D01*
X117338761Y-87746333D01*
X117291142Y-87698714D01*
X117195904Y-87651095D01*
X117005428Y-87651095D01*
X116910190Y-87698714D01*
X116862571Y-87746333D01*
X116814952Y-87841571D01*
%TO.C,C9*%
X144359333Y-101609142D02*
X144311714Y-101656761D01*
X144168857Y-101704380D01*
X144073619Y-101704380D01*
X143930761Y-101656761D01*
X143835523Y-101561523D01*
X143787904Y-101466285D01*
X143740285Y-101275809D01*
X143740285Y-101132952D01*
X143787904Y-100942476D01*
X143835523Y-100847238D01*
X143930761Y-100752000D01*
X144073619Y-100704380D01*
X144168857Y-100704380D01*
X144311714Y-100752000D01*
X144359333Y-100799619D01*
X144835523Y-101704380D02*
X145026000Y-101704380D01*
X145121238Y-101656761D01*
X145168857Y-101609142D01*
X145264095Y-101466285D01*
X145311714Y-101275809D01*
X145311714Y-100894857D01*
X145264095Y-100799619D01*
X145216476Y-100752000D01*
X145121238Y-100704380D01*
X144930761Y-100704380D01*
X144835523Y-100752000D01*
X144787904Y-100799619D01*
X144740285Y-100894857D01*
X144740285Y-101132952D01*
X144787904Y-101228190D01*
X144835523Y-101275809D01*
X144930761Y-101323428D01*
X145121238Y-101323428D01*
X145216476Y-101275809D01*
X145264095Y-101228190D01*
X145311714Y-101132952D01*
%TO.C,L2*%
X100242666Y-104703619D02*
X100718857Y-104703619D01*
X100718857Y-105703619D01*
X99956952Y-105608380D02*
X99909333Y-105656000D01*
X99814095Y-105703619D01*
X99576000Y-105703619D01*
X99480761Y-105656000D01*
X99433142Y-105608380D01*
X99385523Y-105513142D01*
X99385523Y-105417904D01*
X99433142Y-105275047D01*
X100004571Y-104703619D01*
X99385523Y-104703619D01*
%TO.C,C4*%
X140054333Y-91383142D02*
X140006714Y-91430761D01*
X139863857Y-91478380D01*
X139768619Y-91478380D01*
X139625761Y-91430761D01*
X139530523Y-91335523D01*
X139482904Y-91240285D01*
X139435285Y-91049809D01*
X139435285Y-90906952D01*
X139482904Y-90716476D01*
X139530523Y-90621238D01*
X139625761Y-90526000D01*
X139768619Y-90478380D01*
X139863857Y-90478380D01*
X140006714Y-90526000D01*
X140054333Y-90573619D01*
X140911476Y-90811714D02*
X140911476Y-91478380D01*
X140673380Y-90430761D02*
X140435285Y-91145047D01*
X141054333Y-91145047D01*
%TO.C,C2*%
X135977333Y-94083142D02*
X135929714Y-94130761D01*
X135786857Y-94178380D01*
X135691619Y-94178380D01*
X135548761Y-94130761D01*
X135453523Y-94035523D01*
X135405904Y-93940285D01*
X135358285Y-93749809D01*
X135358285Y-93606952D01*
X135405904Y-93416476D01*
X135453523Y-93321238D01*
X135548761Y-93226000D01*
X135691619Y-93178380D01*
X135786857Y-93178380D01*
X135929714Y-93226000D01*
X135977333Y-93273619D01*
X136358285Y-93273619D02*
X136405904Y-93226000D01*
X136501142Y-93178380D01*
X136739238Y-93178380D01*
X136834476Y-93226000D01*
X136882095Y-93273619D01*
X136929714Y-93368857D01*
X136929714Y-93464095D01*
X136882095Y-93606952D01*
X136310666Y-94178380D01*
X136929714Y-94178380D01*
%TO.C,D2*%
X134897904Y-126506380D02*
X134897904Y-125506380D01*
X135136000Y-125506380D01*
X135278857Y-125554000D01*
X135374095Y-125649238D01*
X135421714Y-125744476D01*
X135469333Y-125934952D01*
X135469333Y-126077809D01*
X135421714Y-126268285D01*
X135374095Y-126363523D01*
X135278857Y-126458761D01*
X135136000Y-126506380D01*
X134897904Y-126506380D01*
X135850285Y-125601619D02*
X135897904Y-125554000D01*
X135993142Y-125506380D01*
X136231238Y-125506380D01*
X136326476Y-125554000D01*
X136374095Y-125601619D01*
X136421714Y-125696857D01*
X136421714Y-125792095D01*
X136374095Y-125934952D01*
X135802666Y-126506380D01*
X136421714Y-126506380D01*
X130294095Y-126876380D02*
X130294095Y-125876380D01*
X130865523Y-126876380D02*
X130436952Y-126304952D01*
X130865523Y-125876380D02*
X130294095Y-126447809D01*
%TO.C,C13*%
X127627142Y-91289142D02*
X127579523Y-91336761D01*
X127436666Y-91384380D01*
X127341428Y-91384380D01*
X127198571Y-91336761D01*
X127103333Y-91241523D01*
X127055714Y-91146285D01*
X127008095Y-90955809D01*
X127008095Y-90812952D01*
X127055714Y-90622476D01*
X127103333Y-90527238D01*
X127198571Y-90432000D01*
X127341428Y-90384380D01*
X127436666Y-90384380D01*
X127579523Y-90432000D01*
X127627142Y-90479619D01*
X128579523Y-91384380D02*
X128008095Y-91384380D01*
X128293809Y-91384380D02*
X128293809Y-90384380D01*
X128198571Y-90527238D01*
X128103333Y-90622476D01*
X128008095Y-90670095D01*
X128912857Y-90384380D02*
X129531904Y-90384380D01*
X129198571Y-90765333D01*
X129341428Y-90765333D01*
X129436666Y-90812952D01*
X129484285Y-90860571D01*
X129531904Y-90955809D01*
X129531904Y-91193904D01*
X129484285Y-91289142D01*
X129436666Y-91336761D01*
X129341428Y-91384380D01*
X129055714Y-91384380D01*
X128960476Y-91336761D01*
X128912857Y-91289142D01*
%TO.C,SW1*%
X93382761Y-92265333D02*
X93430380Y-92122476D01*
X93430380Y-91884380D01*
X93382761Y-91789142D01*
X93335142Y-91741523D01*
X93239904Y-91693904D01*
X93144666Y-91693904D01*
X93049428Y-91741523D01*
X93001809Y-91789142D01*
X92954190Y-91884380D01*
X92906571Y-92074857D01*
X92858952Y-92170095D01*
X92811333Y-92217714D01*
X92716095Y-92265333D01*
X92620857Y-92265333D01*
X92525619Y-92217714D01*
X92478000Y-92170095D01*
X92430380Y-92074857D01*
X92430380Y-91836761D01*
X92478000Y-91693904D01*
X92430380Y-91360571D02*
X93430380Y-91122476D01*
X92716095Y-90932000D01*
X93430380Y-90741523D01*
X92430380Y-90503428D01*
X93430380Y-89598666D02*
X93430380Y-90170095D01*
X93430380Y-89884380D02*
X92430380Y-89884380D01*
X92573238Y-89979619D01*
X92668476Y-90074857D01*
X92716095Y-90170095D01*
%TO.C,C10*%
X111195142Y-97416857D02*
X111242761Y-97464476D01*
X111290380Y-97607333D01*
X111290380Y-97702571D01*
X111242761Y-97845428D01*
X111147523Y-97940666D01*
X111052285Y-97988285D01*
X110861809Y-98035904D01*
X110718952Y-98035904D01*
X110528476Y-97988285D01*
X110433238Y-97940666D01*
X110338000Y-97845428D01*
X110290380Y-97702571D01*
X110290380Y-97607333D01*
X110338000Y-97464476D01*
X110385619Y-97416857D01*
X111290380Y-96464476D02*
X111290380Y-97035904D01*
X111290380Y-96750190D02*
X110290380Y-96750190D01*
X110433238Y-96845428D01*
X110528476Y-96940666D01*
X110576095Y-97035904D01*
X110290380Y-95845428D02*
X110290380Y-95750190D01*
X110338000Y-95654952D01*
X110385619Y-95607333D01*
X110480857Y-95559714D01*
X110671333Y-95512095D01*
X110909428Y-95512095D01*
X111099904Y-95559714D01*
X111195142Y-95607333D01*
X111242761Y-95654952D01*
X111290380Y-95750190D01*
X111290380Y-95845428D01*
X111242761Y-95940666D01*
X111195142Y-95988285D01*
X111099904Y-96035904D01*
X110909428Y-96083523D01*
X110671333Y-96083523D01*
X110480857Y-96035904D01*
X110385619Y-95988285D01*
X110338000Y-95940666D01*
X110290380Y-95845428D01*
%TO.C,C21*%
X130675142Y-98909142D02*
X130627523Y-98956761D01*
X130484666Y-99004380D01*
X130389428Y-99004380D01*
X130246571Y-98956761D01*
X130151333Y-98861523D01*
X130103714Y-98766285D01*
X130056095Y-98575809D01*
X130056095Y-98432952D01*
X130103714Y-98242476D01*
X130151333Y-98147238D01*
X130246571Y-98052000D01*
X130389428Y-98004380D01*
X130484666Y-98004380D01*
X130627523Y-98052000D01*
X130675142Y-98099619D01*
X131056095Y-98099619D02*
X131103714Y-98052000D01*
X131198952Y-98004380D01*
X131437047Y-98004380D01*
X131532285Y-98052000D01*
X131579904Y-98099619D01*
X131627523Y-98194857D01*
X131627523Y-98290095D01*
X131579904Y-98432952D01*
X131008476Y-99004380D01*
X131627523Y-99004380D01*
X132579904Y-99004380D02*
X132008476Y-99004380D01*
X132294190Y-99004380D02*
X132294190Y-98004380D01*
X132198952Y-98147238D01*
X132103714Y-98242476D01*
X132008476Y-98290095D01*
%TO.C,R9*%
X127658333Y-113322380D02*
X127325000Y-112846190D01*
X127086904Y-113322380D02*
X127086904Y-112322380D01*
X127467857Y-112322380D01*
X127563095Y-112370000D01*
X127610714Y-112417619D01*
X127658333Y-112512857D01*
X127658333Y-112655714D01*
X127610714Y-112750952D01*
X127563095Y-112798571D01*
X127467857Y-112846190D01*
X127086904Y-112846190D01*
X128134523Y-113322380D02*
X128325000Y-113322380D01*
X128420238Y-113274761D01*
X128467857Y-113227142D01*
X128563095Y-113084285D01*
X128610714Y-112893809D01*
X128610714Y-112512857D01*
X128563095Y-112417619D01*
X128515476Y-112370000D01*
X128420238Y-112322380D01*
X128229761Y-112322380D01*
X128134523Y-112370000D01*
X128086904Y-112417619D01*
X128039285Y-112512857D01*
X128039285Y-112750952D01*
X128086904Y-112846190D01*
X128134523Y-112893809D01*
X128229761Y-112941428D01*
X128420238Y-112941428D01*
X128515476Y-112893809D01*
X128563095Y-112846190D01*
X128610714Y-112750952D01*
%TO.C,C6*%
X121609142Y-99747666D02*
X121656761Y-99795285D01*
X121704380Y-99938142D01*
X121704380Y-100033380D01*
X121656761Y-100176238D01*
X121561523Y-100271476D01*
X121466285Y-100319095D01*
X121275809Y-100366714D01*
X121132952Y-100366714D01*
X120942476Y-100319095D01*
X120847238Y-100271476D01*
X120752000Y-100176238D01*
X120704380Y-100033380D01*
X120704380Y-99938142D01*
X120752000Y-99795285D01*
X120799619Y-99747666D01*
X120704380Y-98890523D02*
X120704380Y-99081000D01*
X120752000Y-99176238D01*
X120799619Y-99223857D01*
X120942476Y-99319095D01*
X121132952Y-99366714D01*
X121513904Y-99366714D01*
X121609142Y-99319095D01*
X121656761Y-99271476D01*
X121704380Y-99176238D01*
X121704380Y-98985761D01*
X121656761Y-98890523D01*
X121609142Y-98842904D01*
X121513904Y-98795285D01*
X121275809Y-98795285D01*
X121180571Y-98842904D01*
X121132952Y-98890523D01*
X121085333Y-98985761D01*
X121085333Y-99176238D01*
X121132952Y-99271476D01*
X121180571Y-99319095D01*
X121275809Y-99366714D01*
D11*
%TO.C,U7*%
X115101619Y-98806095D02*
X114292095Y-98806095D01*
X114196857Y-98853714D01*
X114149238Y-98901333D01*
X114101619Y-98996571D01*
X114101619Y-99187047D01*
X114149238Y-99282285D01*
X114196857Y-99329904D01*
X114292095Y-99377523D01*
X115101619Y-99377523D01*
X115101619Y-99758476D02*
X115101619Y-100425142D01*
X114101619Y-99996571D01*
D10*
%TO.C,L1*%
X123356666Y-92003619D02*
X123832857Y-92003619D01*
X123832857Y-93003619D01*
X122499523Y-92003619D02*
X123070952Y-92003619D01*
X122785238Y-92003619D02*
X122785238Y-93003619D01*
X122880476Y-92860761D01*
X122975714Y-92765523D01*
X123070952Y-92717904D01*
%TO.C,R6*%
X93416380Y-103544666D02*
X92940190Y-103878000D01*
X93416380Y-104116095D02*
X92416380Y-104116095D01*
X92416380Y-103735142D01*
X92464000Y-103639904D01*
X92511619Y-103592285D01*
X92606857Y-103544666D01*
X92749714Y-103544666D01*
X92844952Y-103592285D01*
X92892571Y-103639904D01*
X92940190Y-103735142D01*
X92940190Y-104116095D01*
X92416380Y-102687523D02*
X92416380Y-102878000D01*
X92464000Y-102973238D01*
X92511619Y-103020857D01*
X92654476Y-103116095D01*
X92844952Y-103163714D01*
X93225904Y-103163714D01*
X93321142Y-103116095D01*
X93368761Y-103068476D01*
X93416380Y-102973238D01*
X93416380Y-102782761D01*
X93368761Y-102687523D01*
X93321142Y-102639904D01*
X93225904Y-102592285D01*
X92987809Y-102592285D01*
X92892571Y-102639904D01*
X92844952Y-102687523D01*
X92797333Y-102782761D01*
X92797333Y-102973238D01*
X92844952Y-103068476D01*
X92892571Y-103116095D01*
X92987809Y-103163714D01*
D11*
%TO.C,U9*%
X122721619Y-145288095D02*
X121912095Y-145288095D01*
X121816857Y-145335714D01*
X121769238Y-145383333D01*
X121721619Y-145478571D01*
X121721619Y-145669047D01*
X121769238Y-145764285D01*
X121816857Y-145811904D01*
X121912095Y-145859523D01*
X122721619Y-145859523D01*
X121721619Y-146383333D02*
X121721619Y-146573809D01*
X121769238Y-146669047D01*
X121816857Y-146716666D01*
X121959714Y-146811904D01*
X122150190Y-146859523D01*
X122531142Y-146859523D01*
X122626380Y-146811904D01*
X122674000Y-146764285D01*
X122721619Y-146669047D01*
X122721619Y-146478571D01*
X122674000Y-146383333D01*
X122626380Y-146335714D01*
X122531142Y-146288095D01*
X122293047Y-146288095D01*
X122197809Y-146335714D01*
X122150190Y-146383333D01*
X122102571Y-146478571D01*
X122102571Y-146669047D01*
X122150190Y-146764285D01*
X122197809Y-146811904D01*
X122293047Y-146859523D01*
D10*
%TO.C,R7*%
X105448380Y-92368666D02*
X104972190Y-92702000D01*
X105448380Y-92940095D02*
X104448380Y-92940095D01*
X104448380Y-92559142D01*
X104496000Y-92463904D01*
X104543619Y-92416285D01*
X104638857Y-92368666D01*
X104781714Y-92368666D01*
X104876952Y-92416285D01*
X104924571Y-92463904D01*
X104972190Y-92559142D01*
X104972190Y-92940095D01*
X104448380Y-92035333D02*
X104448380Y-91368666D01*
X105448380Y-91797238D01*
%TO.C,C1*%
X140041333Y-94083142D02*
X139993714Y-94130761D01*
X139850857Y-94178380D01*
X139755619Y-94178380D01*
X139612761Y-94130761D01*
X139517523Y-94035523D01*
X139469904Y-93940285D01*
X139422285Y-93749809D01*
X139422285Y-93606952D01*
X139469904Y-93416476D01*
X139517523Y-93321238D01*
X139612761Y-93226000D01*
X139755619Y-93178380D01*
X139850857Y-93178380D01*
X139993714Y-93226000D01*
X140041333Y-93273619D01*
X140993714Y-94178380D02*
X140422285Y-94178380D01*
X140708000Y-94178380D02*
X140708000Y-93178380D01*
X140612761Y-93321238D01*
X140517523Y-93416476D01*
X140422285Y-93464095D01*
%TO.C,U10*%
X110648380Y-111914095D02*
X111457904Y-111914095D01*
X111553142Y-111866476D01*
X111600761Y-111818857D01*
X111648380Y-111723619D01*
X111648380Y-111533142D01*
X111600761Y-111437904D01*
X111553142Y-111390285D01*
X111457904Y-111342666D01*
X110648380Y-111342666D01*
X111648380Y-110342666D02*
X111648380Y-110914095D01*
X111648380Y-110628380D02*
X110648380Y-110628380D01*
X110791238Y-110723619D01*
X110886476Y-110818857D01*
X110934095Y-110914095D01*
X110648380Y-109723619D02*
X110648380Y-109628380D01*
X110696000Y-109533142D01*
X110743619Y-109485523D01*
X110838857Y-109437904D01*
X111029333Y-109390285D01*
X111267428Y-109390285D01*
X111457904Y-109437904D01*
X111553142Y-109485523D01*
X111600761Y-109533142D01*
X111648380Y-109628380D01*
X111648380Y-109723619D01*
X111600761Y-109818857D01*
X111553142Y-109866476D01*
X111457904Y-109914095D01*
X111267428Y-109961714D01*
X111029333Y-109961714D01*
X110838857Y-109914095D01*
X110743619Y-109866476D01*
X110696000Y-109818857D01*
X110648380Y-109723619D01*
%TO.C,J1*%
X111680666Y-132568380D02*
X111680666Y-133282666D01*
X111633047Y-133425523D01*
X111537809Y-133520761D01*
X111394952Y-133568380D01*
X111299714Y-133568380D01*
X112680666Y-133568380D02*
X112109238Y-133568380D01*
X112394952Y-133568380D02*
X112394952Y-132568380D01*
X112299714Y-132711238D01*
X112204476Y-132806476D01*
X112109238Y-132854095D01*
%TO.C,C3*%
X135977333Y-91383142D02*
X135929714Y-91430761D01*
X135786857Y-91478380D01*
X135691619Y-91478380D01*
X135548761Y-91430761D01*
X135453523Y-91335523D01*
X135405904Y-91240285D01*
X135358285Y-91049809D01*
X135358285Y-90906952D01*
X135405904Y-90716476D01*
X135453523Y-90621238D01*
X135548761Y-90526000D01*
X135691619Y-90478380D01*
X135786857Y-90478380D01*
X135929714Y-90526000D01*
X135977333Y-90573619D01*
X136310666Y-90478380D02*
X136929714Y-90478380D01*
X136596380Y-90859333D01*
X136739238Y-90859333D01*
X136834476Y-90906952D01*
X136882095Y-90954571D01*
X136929714Y-91049809D01*
X136929714Y-91287904D01*
X136882095Y-91383142D01*
X136834476Y-91430761D01*
X136739238Y-91478380D01*
X136453523Y-91478380D01*
X136358285Y-91430761D01*
X136310666Y-91383142D01*
D11*
%TO.C,U8*%
X105664095Y-97750380D02*
X105664095Y-98559904D01*
X105711714Y-98655142D01*
X105759333Y-98702761D01*
X105854571Y-98750380D01*
X106045047Y-98750380D01*
X106140285Y-98702761D01*
X106187904Y-98655142D01*
X106235523Y-98559904D01*
X106235523Y-97750380D01*
X106854571Y-98178952D02*
X106759333Y-98131333D01*
X106711714Y-98083714D01*
X106664095Y-97988476D01*
X106664095Y-97940857D01*
X106711714Y-97845619D01*
X106759333Y-97798000D01*
X106854571Y-97750380D01*
X107045047Y-97750380D01*
X107140285Y-97798000D01*
X107187904Y-97845619D01*
X107235523Y-97940857D01*
X107235523Y-97988476D01*
X107187904Y-98083714D01*
X107140285Y-98131333D01*
X107045047Y-98178952D01*
X106854571Y-98178952D01*
X106759333Y-98226571D01*
X106711714Y-98274190D01*
X106664095Y-98369428D01*
X106664095Y-98559904D01*
X106711714Y-98655142D01*
X106759333Y-98702761D01*
X106854571Y-98750380D01*
X107045047Y-98750380D01*
X107140285Y-98702761D01*
X107187904Y-98655142D01*
X107235523Y-98559904D01*
X107235523Y-98369428D01*
X107187904Y-98274190D01*
X107140285Y-98226571D01*
X107045047Y-98178952D01*
D10*
%TO.C,L3*%
X96686666Y-142549619D02*
X97162857Y-142549619D01*
X97162857Y-143549619D01*
X96448571Y-143549619D02*
X95829523Y-143549619D01*
X96162857Y-143168666D01*
X96020000Y-143168666D01*
X95924761Y-143121047D01*
X95877142Y-143073428D01*
X95829523Y-142978190D01*
X95829523Y-142740095D01*
X95877142Y-142644857D01*
X95924761Y-142597238D01*
X96020000Y-142549619D01*
X96305714Y-142549619D01*
X96400952Y-142597238D01*
X96448571Y-142644857D01*
%TO.C,R12*%
X112832142Y-88496380D02*
X112498809Y-88020190D01*
X112260714Y-88496380D02*
X112260714Y-87496380D01*
X112641666Y-87496380D01*
X112736904Y-87544000D01*
X112784523Y-87591619D01*
X112832142Y-87686857D01*
X112832142Y-87829714D01*
X112784523Y-87924952D01*
X112736904Y-87972571D01*
X112641666Y-88020190D01*
X112260714Y-88020190D01*
X113784523Y-88496380D02*
X113213095Y-88496380D01*
X113498809Y-88496380D02*
X113498809Y-87496380D01*
X113403571Y-87639238D01*
X113308333Y-87734476D01*
X113213095Y-87782095D01*
X114165476Y-87591619D02*
X114213095Y-87544000D01*
X114308333Y-87496380D01*
X114546428Y-87496380D01*
X114641666Y-87544000D01*
X114689285Y-87591619D01*
X114736904Y-87686857D01*
X114736904Y-87782095D01*
X114689285Y-87924952D01*
X114117857Y-88496380D01*
X114736904Y-88496380D01*
%TO.C,C16*%
X143883142Y-96783142D02*
X143835523Y-96830761D01*
X143692666Y-96878380D01*
X143597428Y-96878380D01*
X143454571Y-96830761D01*
X143359333Y-96735523D01*
X143311714Y-96640285D01*
X143264095Y-96449809D01*
X143264095Y-96306952D01*
X143311714Y-96116476D01*
X143359333Y-96021238D01*
X143454571Y-95926000D01*
X143597428Y-95878380D01*
X143692666Y-95878380D01*
X143835523Y-95926000D01*
X143883142Y-95973619D01*
X144835523Y-96878380D02*
X144264095Y-96878380D01*
X144549809Y-96878380D02*
X144549809Y-95878380D01*
X144454571Y-96021238D01*
X144359333Y-96116476D01*
X144264095Y-96164095D01*
X145692666Y-95878380D02*
X145502190Y-95878380D01*
X145406952Y-95926000D01*
X145359333Y-95973619D01*
X145264095Y-96116476D01*
X145216476Y-96306952D01*
X145216476Y-96687904D01*
X145264095Y-96783142D01*
X145311714Y-96830761D01*
X145406952Y-96878380D01*
X145597428Y-96878380D01*
X145692666Y-96830761D01*
X145740285Y-96783142D01*
X145787904Y-96687904D01*
X145787904Y-96449809D01*
X145740285Y-96354571D01*
X145692666Y-96306952D01*
X145597428Y-96259333D01*
X145406952Y-96259333D01*
X145311714Y-96306952D01*
X145264095Y-96354571D01*
X145216476Y-96449809D01*
%TO.C,C22*%
X123801142Y-105798857D02*
X123848761Y-105846476D01*
X123896380Y-105989333D01*
X123896380Y-106084571D01*
X123848761Y-106227428D01*
X123753523Y-106322666D01*
X123658285Y-106370285D01*
X123467809Y-106417904D01*
X123324952Y-106417904D01*
X123134476Y-106370285D01*
X123039238Y-106322666D01*
X122944000Y-106227428D01*
X122896380Y-106084571D01*
X122896380Y-105989333D01*
X122944000Y-105846476D01*
X122991619Y-105798857D01*
X122991619Y-105417904D02*
X122944000Y-105370285D01*
X122896380Y-105275047D01*
X122896380Y-105036952D01*
X122944000Y-104941714D01*
X122991619Y-104894095D01*
X123086857Y-104846476D01*
X123182095Y-104846476D01*
X123324952Y-104894095D01*
X123896380Y-105465523D01*
X123896380Y-104846476D01*
X122991619Y-104465523D02*
X122944000Y-104417904D01*
X122896380Y-104322666D01*
X122896380Y-104084571D01*
X122944000Y-103989333D01*
X122991619Y-103941714D01*
X123086857Y-103894095D01*
X123182095Y-103894095D01*
X123324952Y-103941714D01*
X123896380Y-104513142D01*
X123896380Y-103894095D01*
%TO.C,R2*%
X122720380Y-128182666D02*
X122244190Y-128516000D01*
X122720380Y-128754095D02*
X121720380Y-128754095D01*
X121720380Y-128373142D01*
X121768000Y-128277904D01*
X121815619Y-128230285D01*
X121910857Y-128182666D01*
X122053714Y-128182666D01*
X122148952Y-128230285D01*
X122196571Y-128277904D01*
X122244190Y-128373142D01*
X122244190Y-128754095D01*
X121815619Y-127801714D02*
X121768000Y-127754095D01*
X121720380Y-127658857D01*
X121720380Y-127420761D01*
X121768000Y-127325523D01*
X121815619Y-127277904D01*
X121910857Y-127230285D01*
X122006095Y-127230285D01*
X122148952Y-127277904D01*
X122720380Y-127849333D01*
X122720380Y-127230285D01*
%TO.C,C14*%
X101957142Y-146946857D02*
X102004761Y-146994476D01*
X102052380Y-147137333D01*
X102052380Y-147232571D01*
X102004761Y-147375428D01*
X101909523Y-147470666D01*
X101814285Y-147518285D01*
X101623809Y-147565904D01*
X101480952Y-147565904D01*
X101290476Y-147518285D01*
X101195238Y-147470666D01*
X101100000Y-147375428D01*
X101052380Y-147232571D01*
X101052380Y-147137333D01*
X101100000Y-146994476D01*
X101147619Y-146946857D01*
X102052380Y-145994476D02*
X102052380Y-146565904D01*
X102052380Y-146280190D02*
X101052380Y-146280190D01*
X101195238Y-146375428D01*
X101290476Y-146470666D01*
X101338095Y-146565904D01*
X101385714Y-145137333D02*
X102052380Y-145137333D01*
X101004761Y-145375428D02*
X101719047Y-145613523D01*
X101719047Y-144994476D01*
%TO.C,C11*%
X92162285Y-111322571D02*
X92190857Y-111365428D01*
X92219428Y-111494000D01*
X92219428Y-111579714D01*
X92190857Y-111708285D01*
X92133714Y-111794000D01*
X92076571Y-111836857D01*
X91962285Y-111879714D01*
X91876571Y-111879714D01*
X91762285Y-111836857D01*
X91705142Y-111794000D01*
X91648000Y-111708285D01*
X91619428Y-111579714D01*
X91619428Y-111494000D01*
X91648000Y-111365428D01*
X91676571Y-111322571D01*
X92219428Y-110465428D02*
X92219428Y-110979714D01*
X92219428Y-110722571D02*
X91619428Y-110722571D01*
X91705142Y-110808285D01*
X91762285Y-110894000D01*
X91790857Y-110979714D01*
X92219428Y-109608285D02*
X92219428Y-110122571D01*
X92219428Y-109865428D02*
X91619428Y-109865428D01*
X91705142Y-109951142D01*
X91762285Y-110036857D01*
X91790857Y-110122571D01*
%TO.C,C8*%
X144359333Y-94243142D02*
X144311714Y-94290761D01*
X144168857Y-94338380D01*
X144073619Y-94338380D01*
X143930761Y-94290761D01*
X143835523Y-94195523D01*
X143787904Y-94100285D01*
X143740285Y-93909809D01*
X143740285Y-93766952D01*
X143787904Y-93576476D01*
X143835523Y-93481238D01*
X143930761Y-93386000D01*
X144073619Y-93338380D01*
X144168857Y-93338380D01*
X144311714Y-93386000D01*
X144359333Y-93433619D01*
X144930761Y-93766952D02*
X144835523Y-93719333D01*
X144787904Y-93671714D01*
X144740285Y-93576476D01*
X144740285Y-93528857D01*
X144787904Y-93433619D01*
X144835523Y-93386000D01*
X144930761Y-93338380D01*
X145121238Y-93338380D01*
X145216476Y-93386000D01*
X145264095Y-93433619D01*
X145311714Y-93528857D01*
X145311714Y-93576476D01*
X145264095Y-93671714D01*
X145216476Y-93719333D01*
X145121238Y-93766952D01*
X144930761Y-93766952D01*
X144835523Y-93814571D01*
X144787904Y-93862190D01*
X144740285Y-93957428D01*
X144740285Y-94147904D01*
X144787904Y-94243142D01*
X144835523Y-94290761D01*
X144930761Y-94338380D01*
X145121238Y-94338380D01*
X145216476Y-94290761D01*
X145264095Y-94243142D01*
X145311714Y-94147904D01*
X145311714Y-93957428D01*
X145264095Y-93862190D01*
X145216476Y-93814571D01*
X145121238Y-93766952D01*
%TO.C,C24*%
X117291142Y-93593857D02*
X117338761Y-93641476D01*
X117386380Y-93784333D01*
X117386380Y-93879571D01*
X117338761Y-94022428D01*
X117243523Y-94117666D01*
X117148285Y-94165285D01*
X116957809Y-94212904D01*
X116814952Y-94212904D01*
X116624476Y-94165285D01*
X116529238Y-94117666D01*
X116434000Y-94022428D01*
X116386380Y-93879571D01*
X116386380Y-93784333D01*
X116434000Y-93641476D01*
X116481619Y-93593857D01*
X116481619Y-93212904D02*
X116434000Y-93165285D01*
X116386380Y-93070047D01*
X116386380Y-92831952D01*
X116434000Y-92736714D01*
X116481619Y-92689095D01*
X116576857Y-92641476D01*
X116672095Y-92641476D01*
X116814952Y-92689095D01*
X117386380Y-93260523D01*
X117386380Y-92641476D01*
X116719714Y-91784333D02*
X117386380Y-91784333D01*
X116338761Y-92022428D02*
X117053047Y-92260523D01*
X117053047Y-91641476D01*
%TO.C,J5*%
X115998666Y-131766380D02*
X115998666Y-132480666D01*
X115951047Y-132623523D01*
X115855809Y-132718761D01*
X115712952Y-132766380D01*
X115617714Y-132766380D01*
X116951047Y-131766380D02*
X116474857Y-131766380D01*
X116427238Y-132242571D01*
X116474857Y-132194952D01*
X116570095Y-132147333D01*
X116808190Y-132147333D01*
X116903428Y-132194952D01*
X116951047Y-132242571D01*
X116998666Y-132337809D01*
X116998666Y-132575904D01*
X116951047Y-132671142D01*
X116903428Y-132718761D01*
X116808190Y-132766380D01*
X116570095Y-132766380D01*
X116474857Y-132718761D01*
X116427238Y-132671142D01*
%TO.C,R3*%
X118722380Y-118276666D02*
X118246190Y-118610000D01*
X118722380Y-118848095D02*
X117722380Y-118848095D01*
X117722380Y-118467142D01*
X117770000Y-118371904D01*
X117817619Y-118324285D01*
X117912857Y-118276666D01*
X118055714Y-118276666D01*
X118150952Y-118324285D01*
X118198571Y-118371904D01*
X118246190Y-118467142D01*
X118246190Y-118848095D01*
X117722380Y-117943333D02*
X117722380Y-117324285D01*
X118103333Y-117657619D01*
X118103333Y-117514761D01*
X118150952Y-117419523D01*
X118198571Y-117371904D01*
X118293809Y-117324285D01*
X118531904Y-117324285D01*
X118627142Y-117371904D01*
X118674761Y-117419523D01*
X118722380Y-117514761D01*
X118722380Y-117800476D01*
X118674761Y-117895714D01*
X118627142Y-117943333D01*
%TO.C,R8*%
X112101333Y-99352380D02*
X111768000Y-98876190D01*
X111529904Y-99352380D02*
X111529904Y-98352380D01*
X111910857Y-98352380D01*
X112006095Y-98400000D01*
X112053714Y-98447619D01*
X112101333Y-98542857D01*
X112101333Y-98685714D01*
X112053714Y-98780952D01*
X112006095Y-98828571D01*
X111910857Y-98876190D01*
X111529904Y-98876190D01*
X112672761Y-98780952D02*
X112577523Y-98733333D01*
X112529904Y-98685714D01*
X112482285Y-98590476D01*
X112482285Y-98542857D01*
X112529904Y-98447619D01*
X112577523Y-98400000D01*
X112672761Y-98352380D01*
X112863238Y-98352380D01*
X112958476Y-98400000D01*
X113006095Y-98447619D01*
X113053714Y-98542857D01*
X113053714Y-98590476D01*
X113006095Y-98685714D01*
X112958476Y-98733333D01*
X112863238Y-98780952D01*
X112672761Y-98780952D01*
X112577523Y-98828571D01*
X112529904Y-98876190D01*
X112482285Y-98971428D01*
X112482285Y-99161904D01*
X112529904Y-99257142D01*
X112577523Y-99304761D01*
X112672761Y-99352380D01*
X112863238Y-99352380D01*
X112958476Y-99304761D01*
X113006095Y-99257142D01*
X113053714Y-99161904D01*
X113053714Y-98971428D01*
X113006095Y-98876190D01*
X112958476Y-98828571D01*
X112863238Y-98780952D01*
%TO.C,R4*%
X114958333Y-102654380D02*
X114625000Y-102178190D01*
X114386904Y-102654380D02*
X114386904Y-101654380D01*
X114767857Y-101654380D01*
X114863095Y-101702000D01*
X114910714Y-101749619D01*
X114958333Y-101844857D01*
X114958333Y-101987714D01*
X114910714Y-102082952D01*
X114863095Y-102130571D01*
X114767857Y-102178190D01*
X114386904Y-102178190D01*
X115815476Y-101987714D02*
X115815476Y-102654380D01*
X115577380Y-101606761D02*
X115339285Y-102321047D01*
X115958333Y-102321047D01*
%TO.C,C5*%
X128025142Y-128169666D02*
X128072761Y-128217285D01*
X128120380Y-128360142D01*
X128120380Y-128455380D01*
X128072761Y-128598238D01*
X127977523Y-128693476D01*
X127882285Y-128741095D01*
X127691809Y-128788714D01*
X127548952Y-128788714D01*
X127358476Y-128741095D01*
X127263238Y-128693476D01*
X127168000Y-128598238D01*
X127120380Y-128455380D01*
X127120380Y-128360142D01*
X127168000Y-128217285D01*
X127215619Y-128169666D01*
X127120380Y-127264904D02*
X127120380Y-127741095D01*
X127596571Y-127788714D01*
X127548952Y-127741095D01*
X127501333Y-127645857D01*
X127501333Y-127407761D01*
X127548952Y-127312523D01*
X127596571Y-127264904D01*
X127691809Y-127217285D01*
X127929904Y-127217285D01*
X128025142Y-127264904D01*
X128072761Y-127312523D01*
X128120380Y-127407761D01*
X128120380Y-127645857D01*
X128072761Y-127741095D01*
X128025142Y-127788714D01*
%TO.C,C19*%
X126341142Y-99448857D02*
X126388761Y-99496476D01*
X126436380Y-99639333D01*
X126436380Y-99734571D01*
X126388761Y-99877428D01*
X126293523Y-99972666D01*
X126198285Y-100020285D01*
X126007809Y-100067904D01*
X125864952Y-100067904D01*
X125674476Y-100020285D01*
X125579238Y-99972666D01*
X125484000Y-99877428D01*
X125436380Y-99734571D01*
X125436380Y-99639333D01*
X125484000Y-99496476D01*
X125531619Y-99448857D01*
X126436380Y-98496476D02*
X126436380Y-99067904D01*
X126436380Y-98782190D02*
X125436380Y-98782190D01*
X125579238Y-98877428D01*
X125674476Y-98972666D01*
X125722095Y-99067904D01*
X126436380Y-98020285D02*
X126436380Y-97829809D01*
X126388761Y-97734571D01*
X126341142Y-97686952D01*
X126198285Y-97591714D01*
X126007809Y-97544095D01*
X125626857Y-97544095D01*
X125531619Y-97591714D01*
X125484000Y-97639333D01*
X125436380Y-97734571D01*
X125436380Y-97925047D01*
X125484000Y-98020285D01*
X125531619Y-98067904D01*
X125626857Y-98115523D01*
X125864952Y-98115523D01*
X125960190Y-98067904D01*
X126007809Y-98020285D01*
X126055428Y-97925047D01*
X126055428Y-97734571D01*
X126007809Y-97639333D01*
X125960190Y-97591714D01*
X125864952Y-97544095D01*
%TO.C,Q1*%
X112426761Y-95233619D02*
X112331523Y-95186000D01*
X112236285Y-95090761D01*
X112093428Y-94947904D01*
X111998190Y-94900285D01*
X111902952Y-94900285D01*
X111950571Y-95138380D02*
X111855333Y-95090761D01*
X111760095Y-94995523D01*
X111712476Y-94805047D01*
X111712476Y-94471714D01*
X111760095Y-94281238D01*
X111855333Y-94186000D01*
X111950571Y-94138380D01*
X112141047Y-94138380D01*
X112236285Y-94186000D01*
X112331523Y-94281238D01*
X112379142Y-94471714D01*
X112379142Y-94805047D01*
X112331523Y-94995523D01*
X112236285Y-95090761D01*
X112141047Y-95138380D01*
X111950571Y-95138380D01*
X113331523Y-95138380D02*
X112760095Y-95138380D01*
X113045809Y-95138380D02*
X113045809Y-94138380D01*
X112950571Y-94281238D01*
X112855333Y-94376476D01*
X112760095Y-94424095D01*
%TO.C,J2*%
X93432380Y-135595383D02*
X94146666Y-135595383D01*
X94289523Y-135643002D01*
X94384761Y-135738240D01*
X94432380Y-135881097D01*
X94432380Y-135976335D01*
X93527619Y-135166811D02*
X93480000Y-135119192D01*
X93432380Y-135023954D01*
X93432380Y-134785859D01*
X93480000Y-134690621D01*
X93527619Y-134643002D01*
X93622857Y-134595383D01*
X93718095Y-134595383D01*
X93860952Y-134643002D01*
X94432380Y-135214430D01*
X94432380Y-134595383D01*
%TO.C,Q2*%
X110727619Y-127349238D02*
X110680000Y-127444476D01*
X110584761Y-127539714D01*
X110441904Y-127682571D01*
X110394285Y-127777809D01*
X110394285Y-127873047D01*
X110632380Y-127825428D02*
X110584761Y-127920666D01*
X110489523Y-128015904D01*
X110299047Y-128063523D01*
X109965714Y-128063523D01*
X109775238Y-128015904D01*
X109680000Y-127920666D01*
X109632380Y-127825428D01*
X109632380Y-127634952D01*
X109680000Y-127539714D01*
X109775238Y-127444476D01*
X109965714Y-127396857D01*
X110299047Y-127396857D01*
X110489523Y-127444476D01*
X110584761Y-127539714D01*
X110632380Y-127634952D01*
X110632380Y-127825428D01*
X109727619Y-127015904D02*
X109680000Y-126968285D01*
X109632380Y-126873047D01*
X109632380Y-126634952D01*
X109680000Y-126539714D01*
X109727619Y-126492095D01*
X109822857Y-126444476D01*
X109918095Y-126444476D01*
X110060952Y-126492095D01*
X110632380Y-127063523D01*
X110632380Y-126444476D01*
%TO.C,C12*%
X131463142Y-91383142D02*
X131415523Y-91430761D01*
X131272666Y-91478380D01*
X131177428Y-91478380D01*
X131034571Y-91430761D01*
X130939333Y-91335523D01*
X130891714Y-91240285D01*
X130844095Y-91049809D01*
X130844095Y-90906952D01*
X130891714Y-90716476D01*
X130939333Y-90621238D01*
X131034571Y-90526000D01*
X131177428Y-90478380D01*
X131272666Y-90478380D01*
X131415523Y-90526000D01*
X131463142Y-90573619D01*
X132415523Y-91478380D02*
X131844095Y-91478380D01*
X132129809Y-91478380D02*
X132129809Y-90478380D01*
X132034571Y-90621238D01*
X131939333Y-90716476D01*
X131844095Y-90764095D01*
X132796476Y-90573619D02*
X132844095Y-90526000D01*
X132939333Y-90478380D01*
X133177428Y-90478380D01*
X133272666Y-90526000D01*
X133320285Y-90573619D01*
X133367904Y-90668857D01*
X133367904Y-90764095D01*
X133320285Y-90906952D01*
X132748857Y-91478380D01*
X133367904Y-91478380D01*
D12*
%TO.C,J3*%
X129306000Y-147034000D02*
X139426000Y-147034000D01*
X129306000Y-149094000D02*
X139426000Y-149094000D01*
X138141000Y-143965000D02*
X138047000Y-144058000D01*
X129306000Y-140974000D02*
X129306000Y-149094000D01*
X129306000Y-143034000D02*
X139426000Y-143034000D01*
X129066000Y-147094000D02*
X129066000Y-149334000D01*
X135686000Y-146010000D02*
X135592000Y-146103000D01*
X135856000Y-146250000D02*
X135797000Y-146308000D01*
X139426000Y-140974000D02*
X139426000Y-149094000D01*
X129306000Y-140974000D02*
X139426000Y-140974000D01*
X129066000Y-149334000D02*
X131066000Y-149334000D01*
X137936000Y-143759000D02*
X137877000Y-143818000D01*
X132655000Y-143550000D02*
G75*
G03*
X131076911Y-143550047I-789000J-1483995D01*
G01*
X130382000Y-144245000D02*
G75*
G03*
X130382047Y-145823089I1483995J-789000D01*
G01*
X131866000Y-146714000D02*
G75*
G03*
X132654712Y-146517352I0J1680000D01*
G01*
X131077000Y-146518000D02*
G75*
G03*
X131895383Y-146714450I788998J1483995D01*
G01*
X133350001Y-145823000D02*
G75*
G03*
X133349953Y-144244911I-1484001J789000D01*
G01*
X138546000Y-145034000D02*
G75*
G03*
X138546000Y-145034000I-1680000J0D01*
G01*
%TO.C,C7*%
X94740000Y-110603420D02*
X94740000Y-110884580D01*
X95760000Y-110603420D02*
X95760000Y-110884580D01*
%TO.C,D1*%
X127324000Y-136144000D02*
X128344000Y-136144000D01*
X128344000Y-137614000D02*
X133784000Y-137614000D01*
X133784000Y-134674000D02*
X128344000Y-134674000D01*
X128344000Y-134674000D02*
X128344000Y-137614000D01*
X134804000Y-136144000D02*
X133784000Y-136144000D01*
X133004000Y-137614000D02*
X133004000Y-134674000D01*
X132884000Y-137614000D02*
X132884000Y-134674000D01*
X132764000Y-137614000D02*
X132764000Y-134674000D01*
X133784000Y-137614000D02*
X133784000Y-134674000D01*
%TO.C,C20*%
X128142420Y-95506000D02*
X128423580Y-95506000D01*
X128142420Y-94486000D02*
X128423580Y-94486000D01*
%TO.C,C15*%
X126490000Y-108344580D02*
X126490000Y-108063420D01*
X127510000Y-108344580D02*
X127510000Y-108063420D01*
%TO.C,C17*%
X108571420Y-100840000D02*
X108852580Y-100840000D01*
X108571420Y-99820000D02*
X108852580Y-99820000D01*
%TO.C,J4*%
X104847000Y-113268000D02*
X104847000Y-113788000D01*
X100847000Y-108488000D02*
X104847000Y-108488000D01*
X104847000Y-110728000D02*
X104847000Y-111248000D01*
X99727000Y-110337677D02*
X99727000Y-110368323D01*
X104847000Y-111248000D02*
X100847000Y-111248000D01*
X99727000Y-109083000D02*
X100847000Y-109083000D01*
X104847000Y-111998000D02*
X104847000Y-112518000D01*
X104847000Y-113788000D02*
X100847000Y-113788000D01*
X100847000Y-111998000D02*
X104847000Y-111998000D01*
X104847000Y-109978000D02*
X100847000Y-109978000D01*
X99727000Y-112893000D02*
X100847000Y-112893000D01*
X100847000Y-108608000D02*
X104847000Y-108608000D01*
X97257000Y-108448000D02*
X97257000Y-107688000D01*
X100847000Y-108368000D02*
X104847000Y-108368000D01*
X97257000Y-107688000D02*
X98017000Y-107688000D01*
X99727000Y-114223000D02*
X99727000Y-114147677D01*
X104847000Y-108188000D02*
X104847000Y-108708000D01*
X99727000Y-110353000D02*
X100847000Y-110353000D01*
X99727000Y-107828323D02*
X99727000Y-107753000D01*
X104847000Y-108708000D02*
X100847000Y-108708000D01*
X99727000Y-112877677D02*
X99727000Y-112908323D01*
X100847000Y-107753000D02*
X100847000Y-114223000D01*
X99727000Y-111607677D02*
X99727000Y-111638323D01*
X100847000Y-114223000D02*
X99727000Y-114223000D01*
X99727000Y-107753000D02*
X100847000Y-107753000D01*
X104847000Y-112518000D02*
X100847000Y-112518000D01*
X100847000Y-110728000D02*
X104847000Y-110728000D01*
X99727000Y-111623000D02*
X100847000Y-111623000D01*
X100847000Y-109458000D02*
X104847000Y-109458000D01*
X100847000Y-108248000D02*
X104847000Y-108248000D01*
X100847000Y-113268000D02*
X104847000Y-113268000D01*
X100847000Y-108188000D02*
X104847000Y-108188000D01*
X99727000Y-109067677D02*
X99727000Y-109098323D01*
X104847000Y-109458000D02*
X104847000Y-109978000D01*
%TO.C,C23*%
X131952420Y-94486000D02*
X132233580Y-94486000D01*
X131952420Y-95506000D02*
X132233580Y-95506000D01*
%TO.C,R5*%
X118634742Y-103109500D02*
X119109258Y-103109500D01*
X118634742Y-104154500D02*
X119109258Y-104154500D01*
%TO.C,R1*%
X124443258Y-113777500D02*
X123968742Y-113777500D01*
X124443258Y-114822500D02*
X123968742Y-114822500D01*
%TO.C,U1*%
X145970000Y-114046000D02*
G75*
G03*
X145970000Y-114046000I-5000000J0D01*
G01*
D13*
X151130000Y-108966000D02*
X151130000Y-119126000D01*
X140970000Y-124206000D01*
X130810000Y-119126000D01*
X130810000Y-108966000D01*
X140970000Y-103886000D01*
X151130000Y-108966000D01*
D12*
%TO.C,R10*%
X135715742Y-100090500D02*
X136190258Y-100090500D01*
X135715742Y-99045500D02*
X136190258Y-99045500D01*
%TO.C,R11*%
X112253500Y-118347258D02*
X112253500Y-117872742D01*
X113298500Y-118347258D02*
X113298500Y-117872742D01*
%TO.C,R13*%
X109965258Y-86091500D02*
X109490742Y-86091500D01*
X109965258Y-87136500D02*
X109490742Y-87136500D01*
%TO.C,C18*%
X118874000Y-89053580D02*
X118874000Y-88772420D01*
X117854000Y-89053580D02*
X117854000Y-88772420D01*
%TO.C,C9*%
X144666580Y-99312000D02*
X144385420Y-99312000D01*
X144666580Y-100332000D02*
X144385420Y-100332000D01*
%TO.C,L2*%
X104076000Y-102362000D02*
G75*
G03*
X104076000Y-102362000I-4000000J0D01*
G01*
%TO.C,C4*%
X140080420Y-91946000D02*
X140361580Y-91946000D01*
X140080420Y-92966000D02*
X140361580Y-92966000D01*
%TO.C,C2*%
X136016420Y-94486000D02*
X136297580Y-94486000D01*
X136016420Y-95506000D02*
X136297580Y-95506000D01*
%TO.C,D2*%
X139376000Y-128524000D02*
X138356000Y-128524000D01*
X133936000Y-127054000D02*
X133936000Y-129994000D01*
X138356000Y-127054000D02*
X132916000Y-127054000D01*
X133816000Y-127054000D02*
X133816000Y-129994000D01*
X132916000Y-127054000D02*
X132916000Y-129994000D01*
X132916000Y-129994000D02*
X138356000Y-129994000D01*
X131896000Y-128524000D02*
X132916000Y-128524000D01*
X133696000Y-127054000D02*
X133696000Y-129994000D01*
X138356000Y-129994000D02*
X138356000Y-127054000D01*
%TO.C,C13*%
X128116420Y-91946000D02*
X128397580Y-91946000D01*
X128116420Y-92966000D02*
X128397580Y-92966000D01*
%TO.C,SW1*%
X93798000Y-94162000D02*
X93798000Y-87702000D01*
X100258000Y-94162000D02*
X100258000Y-87702000D01*
X95728000Y-94162000D02*
X98328000Y-94162000D01*
X93828000Y-94162000D02*
X93798000Y-94162000D01*
X93798000Y-87702000D02*
X93828000Y-87702000D01*
X100258000Y-94162000D02*
X100228000Y-94162000D01*
X95728000Y-87702000D02*
X98328000Y-87702000D01*
X100258000Y-87702000D02*
X100228000Y-87702000D01*
%TO.C,C10*%
X112778000Y-96914580D02*
X112778000Y-96633420D01*
X111758000Y-96914580D02*
X111758000Y-96633420D01*
%TO.C,C21*%
X128129420Y-97788000D02*
X128410580Y-97788000D01*
X128129420Y-98808000D02*
X128410580Y-98808000D01*
%TO.C,R9*%
X127587742Y-114822500D02*
X128062258Y-114822500D01*
X127587742Y-113777500D02*
X128062258Y-113777500D01*
%TO.C,C6*%
X123192000Y-99721580D02*
X123192000Y-99440420D01*
X122172000Y-99721580D02*
X122172000Y-99440420D01*
D14*
%TO.C,U7*%
X118394000Y-98568000D02*
X118394000Y-100568000D01*
X115794000Y-98568000D02*
X115794000Y-100568000D01*
D12*
%TO.C,L1*%
X125990000Y-88392000D02*
G75*
G03*
X125990000Y-88392000I-2800000J0D01*
G01*
%TO.C,R6*%
X92617500Y-106269258D02*
X92617500Y-105794742D01*
X93662500Y-106269258D02*
X93662500Y-105794742D01*
D14*
%TO.C,U9*%
X126014000Y-145050000D02*
X126014000Y-147050000D01*
X123414000Y-145050000D02*
X123414000Y-147050000D01*
D12*
%TO.C,R7*%
X105903500Y-92439258D02*
X105903500Y-91964742D01*
X106948500Y-92439258D02*
X106948500Y-91964742D01*
%TO.C,C1*%
X140067420Y-94486000D02*
X140348580Y-94486000D01*
X140067420Y-95506000D02*
X140348580Y-95506000D01*
%TO.C,U10*%
X119626000Y-107066000D02*
X119151000Y-107066000D01*
X119626000Y-114286000D02*
X119151000Y-114286000D01*
X119626000Y-107541000D02*
X119626000Y-107066000D01*
X119626000Y-113811000D02*
X119626000Y-114286000D01*
X112406000Y-107541000D02*
X112406000Y-107066000D01*
X112406000Y-113811000D02*
X112406000Y-114286000D01*
X112406000Y-107066000D02*
X112881000Y-107066000D01*
%TO.C,J1*%
X116004000Y-139392000D02*
X115945000Y-139450000D01*
X104214000Y-140236000D02*
X104214000Y-142476000D01*
X104214000Y-142476000D02*
X106214000Y-142476000D01*
X104454000Y-134116000D02*
X104454000Y-142236000D01*
X110834000Y-139152000D02*
X110740000Y-139245000D01*
X118084000Y-136901000D02*
X118025000Y-136960000D01*
X104454000Y-142236000D02*
X119574000Y-142236000D01*
X113084000Y-136901000D02*
X113025000Y-136960000D01*
X119574000Y-134116000D02*
X119574000Y-142236000D01*
X115834000Y-139152000D02*
X115740000Y-139245000D01*
X113289000Y-137107000D02*
X113195000Y-137200000D01*
X104454000Y-140176000D02*
X119574000Y-140176000D01*
X104454000Y-136176000D02*
X119574000Y-136176000D01*
X118289000Y-137107000D02*
X118195000Y-137200000D01*
X111004000Y-139392000D02*
X110945000Y-139450000D01*
X104454000Y-134116000D02*
X119574000Y-134116000D01*
X108498001Y-138965000D02*
G75*
G03*
X108497953Y-137386911I-1484001J789000D01*
G01*
X105530000Y-137387000D02*
G75*
G03*
X105530047Y-138965089I1483995J-789000D01*
G01*
X106225000Y-139660000D02*
G75*
G03*
X107043383Y-139856450I788998J1483995D01*
G01*
X107803000Y-136692000D02*
G75*
G03*
X106224911Y-136692047I-789000J-1483995D01*
G01*
X107014000Y-139856000D02*
G75*
G03*
X107802712Y-139659352I0J1680000D01*
G01*
X118694000Y-138176000D02*
G75*
G03*
X118694000Y-138176000I-1680000J0D01*
G01*
X113694000Y-138176000D02*
G75*
G03*
X113694000Y-138176000I-1680000J0D01*
G01*
%TO.C,C3*%
X136003420Y-91946000D02*
X136284580Y-91946000D01*
X136003420Y-92966000D02*
X136284580Y-92966000D01*
D14*
%TO.C,U8*%
X107712000Y-98074000D02*
X109712000Y-98074000D01*
X107712000Y-95474000D02*
X109712000Y-95474000D01*
D12*
%TO.C,L3*%
X100520000Y-143002000D02*
G75*
G03*
X100520000Y-143002000I-4000000J0D01*
G01*
%TO.C,R12*%
X113712258Y-86091500D02*
X113237742Y-86091500D01*
X113712258Y-87136500D02*
X113237742Y-87136500D01*
%TO.C,C16*%
X144666580Y-95506000D02*
X144385420Y-95506000D01*
X144666580Y-94486000D02*
X144385420Y-94486000D01*
%TO.C,C22*%
X123954000Y-108063420D02*
X123954000Y-108344580D01*
X122934000Y-108063420D02*
X122934000Y-108344580D01*
%TO.C,R2*%
X124220500Y-128253258D02*
X124220500Y-127778742D01*
X123175500Y-128253258D02*
X123175500Y-127778742D01*
%TO.C,C14*%
X102868000Y-146444580D02*
X102868000Y-146163420D01*
X103888000Y-146444580D02*
X103888000Y-146163420D01*
%TO.C,C11*%
X92708000Y-110603420D02*
X92708000Y-110884580D01*
X93728000Y-110603420D02*
X93728000Y-110884580D01*
%TO.C,C8*%
X144666580Y-91946000D02*
X144385420Y-91946000D01*
X144666580Y-92966000D02*
X144385420Y-92966000D01*
%TO.C,C24*%
X117854000Y-93091580D02*
X117854000Y-92810420D01*
X118874000Y-93091580D02*
X118874000Y-92810420D01*
%TO.C,J5*%
X121392000Y-131314000D02*
X121392000Y-123194000D01*
X121632000Y-122954000D02*
X119632000Y-122954000D01*
X121392000Y-125254000D02*
X111272000Y-125254000D01*
X111272000Y-131314000D02*
X111272000Y-123194000D01*
X121392000Y-131314000D02*
X111272000Y-131314000D01*
X112762000Y-128529000D02*
X112821000Y-128470000D01*
X121392000Y-129254000D02*
X111272000Y-129254000D01*
X112557000Y-128323000D02*
X112651000Y-128230000D01*
X114842000Y-126038000D02*
X114901000Y-125980000D01*
X121632000Y-125194000D02*
X121632000Y-122954000D01*
X115012000Y-126278000D02*
X115106000Y-126185000D01*
X121392000Y-123194000D02*
X111272000Y-123194000D01*
X119621000Y-125770000D02*
G75*
G03*
X118802617Y-125573550I-788998J-1483995D01*
G01*
X120316000Y-128043000D02*
G75*
G03*
X120315953Y-126464911I-1483995J789000D01*
G01*
X118043000Y-128738000D02*
G75*
G03*
X119621089Y-128737953I789000J1483995D01*
G01*
X118832000Y-125574000D02*
G75*
G03*
X118043288Y-125770648I0J-1680000D01*
G01*
X117347999Y-126465000D02*
G75*
G03*
X117348047Y-128043089I1484001J-789000D01*
G01*
X115512000Y-127254000D02*
G75*
G03*
X115512000Y-127254000I-1680000J0D01*
G01*
%TO.C,R3*%
X116317500Y-117872742D02*
X116317500Y-118347258D01*
X117362500Y-117872742D02*
X117362500Y-118347258D01*
%TO.C,R8*%
X112030742Y-100852500D02*
X112505258Y-100852500D01*
X112030742Y-99807500D02*
X112505258Y-99807500D01*
%TO.C,R4*%
X114887742Y-104154500D02*
X115362258Y-104154500D01*
X114887742Y-103109500D02*
X115362258Y-103109500D01*
%TO.C,C5*%
X126748000Y-127862420D02*
X126748000Y-128143580D01*
X125728000Y-127862420D02*
X125728000Y-128143580D01*
%TO.C,C19*%
X128129420Y-100074000D02*
X128410580Y-100074000D01*
X128129420Y-101094000D02*
X128410580Y-101094000D01*
%TO.C,Q1*%
X109722000Y-88686000D02*
X115322000Y-88686000D01*
X115322000Y-93686000D02*
X109722000Y-93686000D01*
X109622000Y-88786000D02*
X109722000Y-88686000D01*
X109722000Y-93686000D02*
X109622000Y-93586000D01*
X115322000Y-88686000D02*
X115422000Y-88786000D01*
X116172000Y-93586000D02*
X115422000Y-93586000D01*
X115422000Y-93586000D02*
X115322000Y-93686000D01*
%TO.C,J2*%
X92968000Y-117701000D02*
X101088000Y-117701000D01*
X95959000Y-123987000D02*
X96052000Y-124081000D01*
X99028000Y-137822000D02*
X99028000Y-117701000D01*
X99088000Y-138062000D02*
X101328000Y-138062000D01*
X98244000Y-126272000D02*
X98302000Y-126331000D01*
X95753000Y-119192000D02*
X95812000Y-119251000D01*
X95959000Y-128987000D02*
X96052000Y-129081000D01*
X95028000Y-137822000D02*
X95028000Y-117701000D01*
X95753000Y-129192000D02*
X95812000Y-129251000D01*
X92968000Y-137822000D02*
X92968000Y-117701000D01*
X98004000Y-131442000D02*
X98097000Y-131536000D01*
X95959000Y-118987000D02*
X96052000Y-119081000D01*
X98244000Y-131272000D02*
X98302000Y-131331000D01*
X101088000Y-137822000D02*
X101088000Y-117701000D01*
X98244000Y-121272000D02*
X98302000Y-121331000D01*
X92968000Y-137822000D02*
X101088000Y-137822000D01*
X101328000Y-138062000D02*
X101328000Y-136062000D01*
X98004000Y-126442000D02*
X98097000Y-126536000D01*
X98004000Y-121442000D02*
X98097000Y-121536000D01*
X95753000Y-124192000D02*
X95812000Y-124251000D01*
X98512000Y-136051000D02*
G75*
G03*
X98708450Y-135232617I-1483995J788998D01*
G01*
X98708000Y-135262000D02*
G75*
G03*
X98511352Y-134473288I-1680000J0D01*
G01*
X96239000Y-136746000D02*
G75*
G03*
X97817089Y-136745953I789000J1483995D01*
G01*
X97817000Y-133777999D02*
G75*
G03*
X96238911Y-133778047I-789000J-1484001D01*
G01*
X95544000Y-134473000D02*
G75*
G03*
X95544047Y-136051089I1483995J-789000D01*
G01*
X98708000Y-125262000D02*
G75*
G03*
X98708000Y-125262000I-1680000J0D01*
G01*
X98708000Y-120262000D02*
G75*
G03*
X98708000Y-120262000I-1680000J0D01*
G01*
X98708000Y-130262000D02*
G75*
G03*
X98708000Y-130262000I-1680000J0D01*
G01*
%TO.C,Q2*%
X104280000Y-130154000D02*
X104180000Y-130054000D01*
X104180000Y-130054000D02*
X104180000Y-124454000D01*
X109180000Y-124454000D02*
X109180000Y-130054000D01*
X109080000Y-124354000D02*
X109180000Y-124454000D01*
X109180000Y-130054000D02*
X109080000Y-130154000D01*
X104180000Y-124454000D02*
X104280000Y-124354000D01*
X109080000Y-123604000D02*
X109080000Y-124354000D01*
%TO.C,C12*%
X131965420Y-91946000D02*
X132246580Y-91946000D01*
X131965420Y-92966000D02*
X132246580Y-92966000D01*
%TD*%
M02*
